<mxfile host="Electron" agent="Mozilla/5.0 (X11; Linux x86_64) AppleWebKit/537.36 (KHTML, like Gecko) draw.io/24.7.17 Chrome/128.0.6613.36 Electron/32.0.1 Safari/537.36" version="24.7.17">
  <diagram name="Страница — 1" id="zMWvtT_9uXDo8n3RHIjP">
    <mxGraphModel dx="2228" dy="1552" grid="1" gridSize="10" guides="1" tooltips="1" connect="1" arrows="1" fold="1" page="1" pageScale="1" pageWidth="827" pageHeight="1169" math="0" shadow="0">
      <root>
        <mxCell id="0" />
        <mxCell id="1" parent="0" />
        <mxCell id="vOLtnv2q4jdiuzCQ8DGL-8" value="" style="rounded=0;whiteSpace=wrap;html=1;movable=0;resizable=0;rotatable=0;deletable=0;editable=0;locked=1;connectable=0;" vertex="1" parent="1">
          <mxGeometry x="860" y="10" width="770" height="610" as="geometry" />
        </mxCell>
        <mxCell id="Ult3MEDuETgYb_QxGLZX-53" value="" style="rounded=0;whiteSpace=wrap;html=1;movable=0;resizable=0;rotatable=0;deletable=0;editable=0;locked=1;connectable=0;" parent="1" vertex="1">
          <mxGeometry x="10" y="10" width="810" height="520" as="geometry" />
        </mxCell>
        <mxCell id="Ult3MEDuETgYb_QxGLZX-42" style="rounded=0;orthogonalLoop=1;jettySize=auto;html=1;entryX=0;entryY=1;entryDx=0;entryDy=0;endSize=10;strokeWidth=2;endArrow=classicThin;endFill=1;" parent="1" source="Ult3MEDuETgYb_QxGLZX-7" target="Ult3MEDuETgYb_QxGLZX-21" edge="1">
          <mxGeometry relative="1" as="geometry" />
        </mxCell>
        <mxCell id="Ult3MEDuETgYb_QxGLZX-46" style="rounded=0;orthogonalLoop=1;jettySize=auto;html=1;entryX=0;entryY=0.5;entryDx=0;entryDy=0;endSize=10;strokeWidth=2;endArrow=classicThin;endFill=1;" parent="1" source="Ult3MEDuETgYb_QxGLZX-7" target="Ult3MEDuETgYb_QxGLZX-10" edge="1">
          <mxGeometry relative="1" as="geometry" />
        </mxCell>
        <mxCell id="Ult3MEDuETgYb_QxGLZX-7" value="1" style="ellipse;whiteSpace=wrap;html=1;aspect=fixed;fontSize=20;strokeWidth=3;" parent="1" vertex="1">
          <mxGeometry x="120" y="240" width="40" height="40" as="geometry" />
        </mxCell>
        <mxCell id="Ult3MEDuETgYb_QxGLZX-43" style="rounded=0;orthogonalLoop=1;jettySize=auto;html=1;entryX=1;entryY=0.5;entryDx=0;entryDy=0;endSize=10;strokeWidth=2;endArrow=classicThin;endFill=1;" parent="1" source="Ult3MEDuETgYb_QxGLZX-9" target="Ult3MEDuETgYb_QxGLZX-21" edge="1">
          <mxGeometry relative="1" as="geometry" />
        </mxCell>
        <mxCell id="Ult3MEDuETgYb_QxGLZX-9" value="2" style="ellipse;whiteSpace=wrap;html=1;aspect=fixed;fontSize=20;strokeWidth=3;" parent="1" vertex="1">
          <mxGeometry x="360" y="40" width="40" height="40" as="geometry" />
        </mxCell>
        <mxCell id="Ult3MEDuETgYb_QxGLZX-10" value="3" style="ellipse;whiteSpace=wrap;html=1;aspect=fixed;fontSize=20;strokeWidth=3;" parent="1" vertex="1">
          <mxGeometry x="280" y="240" width="40" height="40" as="geometry" />
        </mxCell>
        <mxCell id="Ult3MEDuETgYb_QxGLZX-29" style="rounded=0;orthogonalLoop=1;jettySize=auto;html=1;entryX=1;entryY=0;entryDx=0;entryDy=0;endSize=10;strokeWidth=2;endArrow=classicThin;endFill=1;" parent="1" source="Ult3MEDuETgYb_QxGLZX-11" target="Ult3MEDuETgYb_QxGLZX-10" edge="1">
          <mxGeometry relative="1" as="geometry" />
        </mxCell>
        <mxCell id="Ult3MEDuETgYb_QxGLZX-11" value="4" style="ellipse;whiteSpace=wrap;html=1;aspect=fixed;fontSize=20;strokeWidth=3;" parent="1" vertex="1">
          <mxGeometry x="440" y="80" width="40" height="40" as="geometry" />
        </mxCell>
        <mxCell id="Ult3MEDuETgYb_QxGLZX-37" style="rounded=0;orthogonalLoop=1;jettySize=auto;html=1;entryX=0.275;entryY=0.954;entryDx=0;entryDy=0;endSize=10;strokeWidth=2;entryPerimeter=0;endArrow=classicThin;endFill=1;" parent="1" source="Ult3MEDuETgYb_QxGLZX-12" target="Ult3MEDuETgYb_QxGLZX-10" edge="1">
          <mxGeometry relative="1" as="geometry" />
        </mxCell>
        <mxCell id="Ult3MEDuETgYb_QxGLZX-38" style="rounded=0;orthogonalLoop=1;jettySize=auto;html=1;entryX=1;entryY=0;entryDx=0;entryDy=0;endSize=10;strokeWidth=2;endArrow=classicThin;endFill=1;" parent="1" source="Ult3MEDuETgYb_QxGLZX-12" target="Ult3MEDuETgYb_QxGLZX-18" edge="1">
          <mxGeometry relative="1" as="geometry" />
        </mxCell>
        <mxCell id="Ult3MEDuETgYb_QxGLZX-39" style="rounded=0;orthogonalLoop=1;jettySize=auto;html=1;entryX=1;entryY=0.5;entryDx=0;entryDy=0;endSize=10;strokeWidth=2;endArrow=classicThin;endFill=1;" parent="1" source="Ult3MEDuETgYb_QxGLZX-12" target="Ult3MEDuETgYb_QxGLZX-17" edge="1">
          <mxGeometry relative="1" as="geometry" />
        </mxCell>
        <mxCell id="Ult3MEDuETgYb_QxGLZX-12" value="5" style="ellipse;whiteSpace=wrap;html=1;aspect=fixed;fontSize=20;strokeWidth=3;" parent="1" vertex="1">
          <mxGeometry x="240" y="320" width="40" height="40" as="geometry" />
        </mxCell>
        <mxCell id="Ult3MEDuETgYb_QxGLZX-26" style="rounded=0;orthogonalLoop=1;jettySize=auto;html=1;entryX=1;entryY=1;entryDx=0;entryDy=0;endSize=10;strokeWidth=2;endArrow=classicThin;endFill=1;" parent="1" source="Ult3MEDuETgYb_QxGLZX-13" target="Ult3MEDuETgYb_QxGLZX-11" edge="1">
          <mxGeometry relative="1" as="geometry" />
        </mxCell>
        <mxCell id="Ult3MEDuETgYb_QxGLZX-31" style="rounded=0;orthogonalLoop=1;jettySize=auto;html=1;entryX=0.5;entryY=0;entryDx=0;entryDy=0;endSize=10;strokeWidth=2;endArrow=classicThin;endFill=1;" parent="1" source="Ult3MEDuETgYb_QxGLZX-13" target="Ult3MEDuETgYb_QxGLZX-20" edge="1">
          <mxGeometry relative="1" as="geometry" />
        </mxCell>
        <mxCell id="Ult3MEDuETgYb_QxGLZX-32" style="rounded=0;orthogonalLoop=1;jettySize=auto;html=1;entryX=1;entryY=0;entryDx=0;entryDy=0;endSize=10;strokeWidth=2;endArrow=classicThin;endFill=1;" parent="1" source="Ult3MEDuETgYb_QxGLZX-13" target="Ult3MEDuETgYb_QxGLZX-19" edge="1">
          <mxGeometry relative="1" as="geometry" />
        </mxCell>
        <mxCell id="Ult3MEDuETgYb_QxGLZX-49" style="rounded=0;orthogonalLoop=1;jettySize=auto;html=1;entryX=0.942;entryY=0.74;entryDx=0;entryDy=0;strokeWidth=2;endSize=10;entryPerimeter=0;endArrow=classicThin;endFill=1;" parent="1" source="Ult3MEDuETgYb_QxGLZX-13" target="Ult3MEDuETgYb_QxGLZX-21" edge="1">
          <mxGeometry relative="1" as="geometry" />
        </mxCell>
        <mxCell id="Ult3MEDuETgYb_QxGLZX-13" value="6" style="ellipse;whiteSpace=wrap;html=1;aspect=fixed;fontSize=20;strokeWidth=3;" parent="1" vertex="1">
          <mxGeometry x="520" y="200" width="40" height="40" as="geometry" />
        </mxCell>
        <mxCell id="Ult3MEDuETgYb_QxGLZX-33" style="rounded=0;orthogonalLoop=1;jettySize=auto;html=1;endSize=10;strokeWidth=2;endArrow=classicThin;endFill=1;" parent="1" source="Ult3MEDuETgYb_QxGLZX-14" target="Ult3MEDuETgYb_QxGLZX-19" edge="1">
          <mxGeometry relative="1" as="geometry" />
        </mxCell>
        <mxCell id="Ult3MEDuETgYb_QxGLZX-14" value="7" style="ellipse;whiteSpace=wrap;html=1;aspect=fixed;fontSize=20;strokeWidth=3;" parent="1" vertex="1">
          <mxGeometry x="280" y="360" width="40" height="40" as="geometry" />
        </mxCell>
        <mxCell id="Ult3MEDuETgYb_QxGLZX-27" style="rounded=0;orthogonalLoop=1;jettySize=auto;html=1;entryX=0;entryY=1;entryDx=0;entryDy=0;endSize=10;strokeWidth=2;endArrow=classicThin;endFill=1;" parent="1" source="Ult3MEDuETgYb_QxGLZX-16" target="Ult3MEDuETgYb_QxGLZX-13" edge="1">
          <mxGeometry relative="1" as="geometry" />
        </mxCell>
        <mxCell id="Ult3MEDuETgYb_QxGLZX-28" style="rounded=0;orthogonalLoop=1;jettySize=auto;html=1;entryX=0.5;entryY=1;entryDx=0;entryDy=0;endSize=10;strokeWidth=2;endArrow=classicThin;endFill=1;" parent="1" source="Ult3MEDuETgYb_QxGLZX-16" target="Ult3MEDuETgYb_QxGLZX-11" edge="1">
          <mxGeometry relative="1" as="geometry" />
        </mxCell>
        <mxCell id="Ult3MEDuETgYb_QxGLZX-34" style="rounded=0;orthogonalLoop=1;jettySize=auto;html=1;entryX=1;entryY=0;entryDx=0;entryDy=0;endSize=10;strokeWidth=2;endArrow=classicThin;endFill=1;" parent="1" source="Ult3MEDuETgYb_QxGLZX-16" target="Ult3MEDuETgYb_QxGLZX-14" edge="1">
          <mxGeometry relative="1" as="geometry" />
        </mxCell>
        <mxCell id="Ult3MEDuETgYb_QxGLZX-44" style="rounded=0;orthogonalLoop=1;jettySize=auto;html=1;entryX=0.645;entryY=1.04;entryDx=0;entryDy=0;endSize=10;strokeWidth=2;endArrow=classicThin;endFill=1;entryPerimeter=0;" parent="1" source="Ult3MEDuETgYb_QxGLZX-16" target="Ult3MEDuETgYb_QxGLZX-9" edge="1">
          <mxGeometry relative="1" as="geometry" />
        </mxCell>
        <mxCell id="Ult3MEDuETgYb_QxGLZX-16" value="8" style="ellipse;whiteSpace=wrap;html=1;aspect=fixed;fontSize=20;strokeWidth=3;" parent="1" vertex="1">
          <mxGeometry x="400" y="240" width="40" height="40" as="geometry" />
        </mxCell>
        <mxCell id="Ult3MEDuETgYb_QxGLZX-23" style="rounded=0;orthogonalLoop=1;jettySize=auto;html=1;entryX=0.5;entryY=1;entryDx=0;entryDy=0;endSize=10;strokeWidth=2;endArrow=classicThin;endFill=1;" parent="1" source="Ult3MEDuETgYb_QxGLZX-17" target="Ult3MEDuETgYb_QxGLZX-22" edge="1">
          <mxGeometry relative="1" as="geometry" />
        </mxCell>
        <mxCell id="Ult3MEDuETgYb_QxGLZX-41" style="rounded=0;orthogonalLoop=1;jettySize=auto;html=1;entryX=0;entryY=1;entryDx=0;entryDy=0;endSize=10;strokeWidth=2;endArrow=classicThin;endFill=1;" parent="1" source="Ult3MEDuETgYb_QxGLZX-17" target="Ult3MEDuETgYb_QxGLZX-7" edge="1">
          <mxGeometry relative="1" as="geometry" />
        </mxCell>
        <mxCell id="Ult3MEDuETgYb_QxGLZX-17" value="9" style="ellipse;whiteSpace=wrap;html=1;aspect=fixed;fontSize=20;strokeWidth=3;" parent="1" vertex="1">
          <mxGeometry x="40" y="320" width="40" height="40" as="geometry" />
        </mxCell>
        <mxCell id="Ult3MEDuETgYb_QxGLZX-35" style="rounded=0;orthogonalLoop=1;jettySize=auto;html=1;entryX=0;entryY=1;entryDx=0;entryDy=0;endSize=10;strokeWidth=2;endArrow=classicThin;endFill=1;" parent="1" source="Ult3MEDuETgYb_QxGLZX-18" target="Ult3MEDuETgYb_QxGLZX-14" edge="1">
          <mxGeometry relative="1" as="geometry" />
        </mxCell>
        <mxCell id="Ult3MEDuETgYb_QxGLZX-40" style="rounded=0;orthogonalLoop=1;jettySize=auto;html=1;entryX=0.63;entryY=1.02;entryDx=0;entryDy=0;endSize=10;strokeWidth=2;entryPerimeter=0;endArrow=classicThin;endFill=1;" parent="1" source="Ult3MEDuETgYb_QxGLZX-18" target="Ult3MEDuETgYb_QxGLZX-7" edge="1">
          <mxGeometry relative="1" as="geometry" />
        </mxCell>
        <mxCell id="Ult3MEDuETgYb_QxGLZX-45" style="rounded=0;orthogonalLoop=1;jettySize=auto;html=1;entryX=0;entryY=0.5;entryDx=0;entryDy=0;endSize=10;strokeWidth=2;endArrow=classicThin;endFill=1;" parent="1" source="Ult3MEDuETgYb_QxGLZX-18" target="Ult3MEDuETgYb_QxGLZX-20" edge="1">
          <mxGeometry relative="1" as="geometry" />
        </mxCell>
        <mxCell id="Ult3MEDuETgYb_QxGLZX-18" value="10" style="ellipse;whiteSpace=wrap;html=1;aspect=fixed;fontSize=20;strokeWidth=3;" parent="1" vertex="1">
          <mxGeometry x="160" y="440" width="40" height="40" as="geometry" />
        </mxCell>
        <mxCell id="Ult3MEDuETgYb_QxGLZX-36" style="rounded=0;orthogonalLoop=1;jettySize=auto;html=1;entryX=1;entryY=1;entryDx=0;entryDy=0;endSize=10;strokeWidth=2;endArrow=classicThin;endFill=1;" parent="1" source="Ult3MEDuETgYb_QxGLZX-19" target="Ult3MEDuETgYb_QxGLZX-10" edge="1">
          <mxGeometry relative="1" as="geometry" />
        </mxCell>
        <mxCell id="Ult3MEDuETgYb_QxGLZX-19" value="11" style="ellipse;whiteSpace=wrap;html=1;aspect=fixed;fontSize=20;strokeWidth=3;" parent="1" vertex="1">
          <mxGeometry x="440" y="360" width="40" height="40" as="geometry" />
        </mxCell>
        <mxCell id="Ult3MEDuETgYb_QxGLZX-20" value="12" style="ellipse;whiteSpace=wrap;html=1;aspect=fixed;fontSize=20;strokeWidth=3;" parent="1" vertex="1">
          <mxGeometry x="520" y="440" width="40" height="40" as="geometry" />
        </mxCell>
        <mxCell id="Ult3MEDuETgYb_QxGLZX-47" style="rounded=0;orthogonalLoop=1;jettySize=auto;html=1;entryX=0.281;entryY=0.012;entryDx=0;entryDy=0;entryPerimeter=0;endSize=10;strokeWidth=2;endArrow=classicThin;endFill=1;" parent="1" source="Ult3MEDuETgYb_QxGLZX-21" target="Ult3MEDuETgYb_QxGLZX-10" edge="1">
          <mxGeometry relative="1" as="geometry" />
        </mxCell>
        <mxCell id="Ult3MEDuETgYb_QxGLZX-21" value="13" style="ellipse;whiteSpace=wrap;html=1;aspect=fixed;fontSize=20;strokeWidth=3;" parent="1" vertex="1">
          <mxGeometry x="240" y="40" width="40" height="40" as="geometry" />
        </mxCell>
        <mxCell id="Ult3MEDuETgYb_QxGLZX-25" style="rounded=0;orthogonalLoop=1;jettySize=auto;html=1;entryX=0;entryY=0.5;entryDx=0;entryDy=0;endSize=10;strokeWidth=2;endArrow=classicThin;endFill=1;" parent="1" source="Ult3MEDuETgYb_QxGLZX-22" target="Ult3MEDuETgYb_QxGLZX-13" edge="1">
          <mxGeometry relative="1" as="geometry" />
        </mxCell>
        <mxCell id="Ult3MEDuETgYb_QxGLZX-22" value="14" style="ellipse;whiteSpace=wrap;html=1;aspect=fixed;fontSize=20;strokeWidth=3;" parent="1" vertex="1">
          <mxGeometry x="40" y="120" width="40" height="40" as="geometry" />
        </mxCell>
        <mxCell id="Ult3MEDuETgYb_QxGLZX-48" value="1&amp;nbsp; | 3&amp;nbsp; 13 0&amp;nbsp; 0&lt;div style=&quot;font-size: 20px;&quot;&gt;2&amp;nbsp; |&lt;span style=&quot;background-color: initial; font-size: 20px;&quot;&gt;&amp;nbsp;13&lt;/span&gt;&lt;span style=&quot;background-color: initial; font-size: 20px;&quot;&gt;&amp;nbsp;0&amp;nbsp; 0&amp;nbsp; 0&lt;/span&gt;&lt;/div&gt;&lt;div style=&quot;font-size: 20px;&quot;&gt;3&amp;nbsp; |&lt;span style=&quot;background-color: initial; font-size: 20px;&quot;&gt;&amp;nbsp;&lt;/span&gt;&lt;span style=&quot;background-color: initial; font-size: 20px;&quot;&gt;0&amp;nbsp; 0&amp;nbsp; 0&amp;nbsp; 0&lt;/span&gt;&lt;/div&gt;&lt;div style=&quot;font-size: 20px;&quot;&gt;4&amp;nbsp; |&lt;span style=&quot;background-color: initial; font-size: 20px;&quot;&gt;&amp;nbsp;3&lt;/span&gt;&lt;span style=&quot;background-color: initial; font-size: 20px;&quot;&gt;&amp;nbsp; 0&amp;nbsp; 0&amp;nbsp; 0&lt;/span&gt;&lt;/div&gt;&lt;div style=&quot;font-size: 20px;&quot;&gt;5&amp;nbsp; |&lt;span style=&quot;background-color: initial; font-size: 20px;&quot;&gt;&amp;nbsp;3&lt;/span&gt;&lt;span style=&quot;background-color: initial; font-size: 20px;&quot;&gt;&amp;nbsp; 9&amp;nbsp; 10 0&lt;/span&gt;&lt;/div&gt;&lt;div style=&quot;font-size: 20px;&quot;&gt;6&amp;nbsp; |&lt;span style=&quot;background-color: initial; font-size: 20px;&quot;&gt;&amp;nbsp;4&amp;nbsp;&lt;/span&gt;&lt;span style=&quot;background-color: initial; font-size: 20px;&quot;&gt;&amp;nbsp;11 12 13&lt;/span&gt;&lt;/div&gt;&lt;div style=&quot;font-size: 20px;&quot;&gt;7&amp;nbsp; |&lt;span style=&quot;background-color: initial; font-size: 20px;&quot;&gt;&amp;nbsp;11&lt;/span&gt;&lt;span style=&quot;background-color: initial; font-size: 20px;&quot;&gt;&amp;nbsp;0&amp;nbsp; 0&amp;nbsp; 0&lt;/span&gt;&lt;/div&gt;&lt;div style=&quot;font-size: 20px;&quot;&gt;8&amp;nbsp; |&lt;span style=&quot;background-color: initial; font-size: 20px;&quot;&gt;&amp;nbsp;2&lt;/span&gt;&lt;span style=&quot;background-color: initial; font-size: 20px;&quot;&gt;&amp;nbsp; 4&amp;nbsp; 6&amp;nbsp; 7&lt;/span&gt;&lt;/div&gt;&lt;div style=&quot;font-size: 20px;&quot;&gt;9&amp;nbsp; |&lt;span style=&quot;background-color: initial; font-size: 20px;&quot;&gt;&amp;nbsp;1&lt;/span&gt;&lt;span style=&quot;background-color: initial; font-size: 20px;&quot;&gt;&amp;nbsp; 14 0&amp;nbsp; 0&lt;/span&gt;&lt;/div&gt;&lt;div style=&quot;font-size: 20px;&quot;&gt;10 |&lt;span style=&quot;background-color: initial; font-size: 20px;&quot;&gt;&amp;nbsp;1&lt;/span&gt;&lt;span style=&quot;background-color: initial; font-size: 20px;&quot;&gt;&amp;nbsp; 7&amp;nbsp; 12 0&lt;/span&gt;&lt;/div&gt;&lt;div style=&quot;font-size: 20px;&quot;&gt;11 |&lt;span style=&quot;background-color: initial; font-size: 20px;&quot;&gt;&amp;nbsp;3&lt;/span&gt;&lt;span style=&quot;background-color: initial; font-size: 20px;&quot;&gt;&amp;nbsp; 0&amp;nbsp; 0&amp;nbsp; 0&lt;/span&gt;&lt;/div&gt;&lt;div style=&quot;font-size: 20px;&quot;&gt;12 |&lt;span style=&quot;background-color: initial; font-size: 20px;&quot;&gt;&amp;nbsp;&lt;/span&gt;&lt;span style=&quot;background-color: initial; font-size: 20px;&quot;&gt;0&amp;nbsp; 0&amp;nbsp; 0&amp;nbsp; 0&lt;/span&gt;&lt;/div&gt;&lt;div style=&quot;font-size: 20px;&quot;&gt;13 |&lt;span style=&quot;background-color: initial; font-size: 20px;&quot;&gt;&amp;nbsp;3&lt;/span&gt;&lt;span style=&quot;background-color: initial; font-size: 20px;&quot;&gt;&amp;nbsp; 0&amp;nbsp; 0&amp;nbsp; 0&lt;/span&gt;&lt;/div&gt;&lt;div style=&quot;font-size: 20px;&quot;&gt;14 |&lt;span style=&quot;background-color: initial; font-size: 20px;&quot;&gt;&amp;nbsp;6&lt;/span&gt;&lt;span style=&quot;background-color: initial; font-size: 20px;&quot;&gt;&amp;nbsp; 0&amp;nbsp; 0&amp;nbsp; 0&lt;/span&gt;&lt;/div&gt;" style="text;html=1;align=left;verticalAlign=middle;whiteSpace=wrap;rounded=0;fontFamily=Courier New;fontSize=20;fontStyle=1" parent="1" vertex="1">
          <mxGeometry x="610" y="80" width="200" height="360" as="geometry" />
        </mxCell>
        <mxCell id="Ult3MEDuETgYb_QxGLZX-50" value="Источник:&#xa;Белоусов А. И., Ткачев С. Б. Дискретная математика. — М.: МГТУ, 2004., с. 351 " style="shape=image;verticalLabelPosition=bottom;labelBackgroundColor=default;verticalAlign=top;aspect=fixed;imageAspect=0;image=data:image/png,iVBORw0KGgoAAAANSUhEUgAAAY0AAAFGCAIAAAAZ6lTxAAAAA3NCSVQICAjb4U/gAAAgAElEQVR4Xuzdd9wEV1k2fhHs5VUUxIqIoogKdlEUxUKRgGI0NIlIDRApUiI9kIReIyWhSYmAQlCIImpEwAKCgIhYURSxYO+v/fcll+/5jTOzs7Mzs7uz+8z+8Xz2mT1z+rnOfV/3fe5zuf/+7//+oOWz9MDSA0sPzLgHPnjGdVuqtvTA0gNLD3ygBxacWubB0gNLD8y9BxacmvsILfVbemDpgQWnljmw9MDSA3PvgQWn5j5CS/2WHlh6YMGpZQ4sPbD0wNx7YMGpuY/QUr+lB5YeWHBqmQNLDyw9MPceWHBq7iO01G/pgaUHFpxa5sDSA0sPzL0HFpya+wgt9Vt6YOmBBaeWObD0wNIDc++BBafmPkJL/ZYeWHpgwallDiw9sPTA3HvgCnOv4FK/zh74z//8z3/+538WnOfDP/zDP/RDPzRpPfyXf/mXD/uwD/uQD/mQzrcP7Mf/e9lHMzX2gz/4f7ZYT7T3Iz/yIy93ucsdWHuW6vbugQWnenfV/BL++7//+7vf/e7Xve51//Ef/3H1q1/9Ote5zpWudKW/+7u/+53f+Z13vvOdn/VZn/WVX/mVH/VRHzW/ig+p0d///d+/4Q1veNe73vUpn/IpX/AFX6C9H/ERH/GHf/iHv/Zrv/YP//APX/M1X/OZn/mZl7/85Ydkvbwz/x6wFS+fQ+yBf/u3f3vTm9502mmnZY5ZtGeeeeZv/dZvPfaxj73KVa7i4cd+7Mf+xE/8hGSH2Lpanf/yL//y/PPPh0Rp7Od93ue94hWveNvb3nb9618/MuO3fdu3/fEf//ERtHRpQmsPXP7hD3/4/MF0qWGtB2g6v/3bv/2YxzzmpS99aX4iUhlgut7rX//6t771rR7+67/+65WvfOVrX/vaAOugO5AkpZlPetKTfv/3fz8NAVswCyj/9E//tF89fP/733+DG9zgMz7jM4o+eNBNXipf64GFRz/IKYF+skStXmodMEob/uu//uuKV7zida973aIBvf3tb//bv/3bg2xhpdK/8Ru/8cIXvpC4pHWYqdJY2t9XfdVXfczHfIwnf/3Xfw229MChN3apf2sPLPxUa7ccwEOK3ud//ucjof7xH/+RNKHG17zmNa93veuhbz75kz/5ec973lve8pYDaEaPKtLsYDEVL9Ii4vwTP/ETr3Wta93iFrdAyYGwZz7zmXCqR05LkkPtgQWnDnLkgNTXf/3XE6b+6Z/+6SlPeYo2XOEKV8DafPZnf7bv3/M93/Pnf/7nKOeDbFuj0sTDO9zhDowGr3nNayIefu7nfi4eneFPk+93v/u98pWvXHCq0W1H9WDR+w5yOBm2LNEb3/jGrHt/9Ed/pA3WrSdpDCsYjtlP4KxqAgNeNc3I4n/f+973u7/7u3/6p386244gPd30pjclUlEAU8kv+ZIvQUXl+6tf/eq/+qu/8p1rQp4QMLUImQXEZ9uopWIb9cAiT23UXfNK/Gd/9me/9Eu/xH9KtWhAX/EVX+ELieP5z3/+L/zCL1CXvvqrv/oTPuET+C78+q//ukUOv0gfn/M5n5NmWMYYLsZ+X7A8V7va1b78y7/8hje84bwa+f9qg356xzve4b+P+7iP+9qv/drg1Jvf/ObnPOc5aHWNQlcBZTKXDzJL8/UJ3RCCz7NFS63698CCU/37anYpsemWqGohmHFVJA42vvDrpKSbXfb5+I//+Je//OXPfe5zceqkJ8gVnGIfpC6de+65xYhGc7zJTW5y1atetchls2owJ6mY9qBPHBQIkk972tNAFQXw3ve+N3ruV3/1V9mv3/jGN6o5w9+ll1763ve+9573vOcCVbMaygGVWfS+AZ02u1fIDhS6P/iDPyAfPfnJT+bnSdw4/fTTIQ70AT3xWlDvrGFfpKfrASmLnCTCI1QaWEZAm13z/neFNBYcawi3jFe96lXA65RTTuFHhq2DyGkgxfCbvumb6Lk/8iM/QjGceYuW6q3tgUWeWttF801AAyIcQRYEzYtf/GJf3vOe90CrT//0T7/b3e72dV/3dTlJg3H/7u/+7kc84hFUQks37bHa0VvWMK8rCbzFaxSlRZecZ4M5rzJl/smf/Amh6aEPfSiooswSsm5+85sTpuIj5mEqf6tb3coXoqUn4e/m2ailVj17YMGpnh01x2Sf+qmf+q3f+q0cO6EMGcqHexH7/W1ve9sb3ehG6OdUGpuOeGLUr7bBaTg+Deeccw7N8ed+7udk4lf6UUiuGbZWE775m7/5JS95CdPea1/7WjVk3IS/GksTJDZ64l/+97Rg7ukkKU8wVofu5jrDsdh9lRac2n2fT1YiCxfthvcQgpkLFcoc9LDZW8DF+JXCaHY1nPLcE+oedEOu/97v/Z4neB/+65PVb9KMaK9nnXUWIZHMyIVKGxFS2ouVK8etqXuf9EmfBJcJklRCFJUWgexJK7Jkto8eaD1Nszw8oB7AK+Fo4BStDVO+qubhngkatQSUwQsvvBC/bvbRIumPq3KYw3OmA0quxvrSUZ8HPOAB0Ao9R1Sk+nWkXH46iB5Y5Kl9bA6Tlkm14VWQ4yP9MzY7aYsveMELSGEoHvIXWz5RxcJGV+Ukc//cdpaSYluOzqwqlMmPs4Jk97jHPcRRKOFuVqVfns+/BxZ73/zHaIIaIqEcXa5mRHV61KMexZf9ggsu4FqFeieAEMew6XyvJihyT1nc//731yj8OncElNYZZ5zBALqnuizFTtYDizw1WVfOOSPBBnLiRLQm7ggOAKotVPIQYAkF82mf9mlxpML4ILPm3JaOuj3+8Y9/+tOfzm0Vrc4yIPaLqBJf/MVffK973avjreWn+ffAIk/Nf4zG1vBZz3rWD/3QDzlNIiNGehY9aIV7Zj7zBH3DoeHiiy8GW8IPWNI5JDi21H28/5u/+Zs5K4OzIxUKFuhLzaSwj3otZY7tgUWeGtuD83+fTsc0hn4WYwADjYdivCdxoKV++Id/OPZ7rSBk3fKWt0ToHG5UTB5hPO8zItroC+eMwPH8h2mpYUcPXA6f2vHz8tMR9ACZgtBEXIJN3NB9PvqjP9p3Q++nrGfNZMVHOR8uSGmCNtbOHnMTQ6g3fTKOYFhPVBMWnDpRw700dumBg+yBhZ86yGFbKr30wInqgQWnTtRwL41deuAge2DBqYMctqXSSw+cqB5YcOpEDffS2KUHDrIHFpw6yGFbKr30wInqgcV/6kQMt1gozs38xV/8BV+E/3PZZ9PzgHvvJvXnc8DBggM91wqOUUdz1fPe+3b+FVhwav5jNLaGju+97GUvs8id3eMwJYqAIMXf8A3f4O/aM71jy57ofc70fOi5mCdYQlznOa8KYuPIdInrMlFpSzaz64HFf2p2QzJhhUgfLp553OMe5wL3EutS/pw8XYXgpC6X9AmL21JWDlGLzCkEglgO1SKECfzO7/xOsfG+8Au/cIGqLXX+TLJdcGomAzF9NQSluuSSS4CU+LyUJuEQCCDczYlXrqjhqO0c37Of/WxBBfy0qngYQWckxbgPQgSr3ctff/M3f/OiF73IAeOEDxarU3xOmOs5BVC1Qe0jH/lIsuFBe9Kv6v/leXpgwamjnQmOFgvUmSgItDyhO7/xG7+RJPXzP//zDh7/zM/8jO9A6iEPeYhjcdVeoFUJROUSLdFRBCN3F54jgWKTg4MdX0VD3RPBXTR0l2IJBv9lX/ZlGqImguS99a1vFbEz4d5/4LLPwTFuRzvzttGwg4jmt1Ry0x5wHcOtb33riD/unsmNBiWTX/7lX87pXJIU1Yl45SeoRNT6qZ/6KQGb3KgsdgL2x0nAMutEJd+0GiPTq893fMd3qADK/NRTT1VtMlTyBKP3ve99iVd+Vc9f/MVfdFBxZHHL67PtgYVH3wb47z9PWhI5KJrR7W9/++te97rVsJbEKNfPEKkIJmSr5z3veRANKBC+fERMz4u1ZhDEWAw3ahvsE+KKKITFh4ZY/NxqJYgoxY3gVs3NQWiUE1ue0rHjEhOaFCrNNa5xjdvc5jags6QHvmeeeebrXvc6aqkgUz/5kz8pbNbCUm00OgeUeMGpAxqsgVX9lm/5lloMJlRO0eBEehHYE4G19up2THYHk9VaOfCEJsMoASmYqBTKJniCXJ43ccotDHCKZMTtQGJY5iNnMWcS371aCqgqrgmwtQR+aK3J8vCge2DBqYMevl6VB1JElVVJgQX6adWv1ec9kzWzSoi+PCcl+YKYbybL1ad5HngqaSBdVLzmW3kCEOksq35dnh96Dyw4degj2F5/2FSUIAodS181BpMlXYAA/eyyKRIWVdEtnsSr9hw/6INoi1/0RV+0g1hOiiBw/cqv/AqZ6w1veIP6gEg3dxGgVtWNtEVSW/Xr8vzQe2AZ2kMfwfb6W9KsY7kxGA91k5vcpIov7Prnn3++Nz0UhhhXxU0B0fPud7+bOyUjGsYaZtWyxrjf7GY32wFOQRwK5k1vetN3vetdtFEIhYHCo2HZqoon1zB1TiUFQd9Bxdr7enm6/R5YcGr7fbyPEkhJt7jFLSCUkOFM++QgKOOyBnhkzbtjRsR09aJMMQu6njN1BAQuWKZDvfe970WB81/3YVkjziDav/RLv9QFfx0q5LQNxbWj1ZX+6Ec/mvT30pe+VNGnnHKKOuDm8esu9QKsCnUFNJFw975d07Z3ya2jBxb/qY7OOeyfUNeu2+QkaVUzn4mSHtbZdaQkFDCkeZ5L4/LRJkvtV06ePtglKpgjgTe84Q3LXfC76RqMFZx1H59zPzRTqMp5CleFMud44UMwpCGK8u5e6MXYt5tB2UspC07tpdt3VKgV7p6oDmcCa5vMcqUrXQlgUZ2sdn+rPlOpKJ4ITNC5diZMlQ6CRFDS3fQOzQCmWscBqQc+8IF3vvOdweiO+nQpZh89sE+copXEKxp7cr3rXU/zifeesDHf4AY3yE3i++iTIynz+c9//mMe8xheVExs5CB9W64aPf300/lG8jkqV4qCIaqiwzFXvvKVnachtlAVb3SjG+1YgGrtetIT+yDijLrKYZWcmGROzNz2trd1ezMNkT7b+u5WH7I88NV45Stfqbv0FZdUX378x3/8JS95id528JDqvaknx1YrfMCZ78sD1YSzjdNE7N5Xv/rVn/rUp+JEcChkewvGFDQv91W3IygXd5PTfKamL46/IKcyTR/84Adb9vQ+LHW2h+r0teB5hBoXA0FVvPa1r+2Q4Bw6BFq5aJ7oFF8wMHrppZcmxsteqme6Osgd2RPxT6Aj9Ol2LF6u7bHREgD3UrfjK/SD9tIkIHXVq161LA/aBGdiwFSoUBu75bSXuh16oegnCwa+lHO5D3vYw6BSYaCwOWkjOestb3lLE6qqsGVoMO4z6RPy4IUXXujGZjUk92HWaYV7qRsAcqKwpiCDLUd56NHpQGjF0T9nkvZSyWMqdKX731ZFRMfHcvw9paBLkbU2cExtnqB+3/e+9221Dsea+UUXXXTuuecmRkLayMBfDSlX/IwAGTbKxZwd0V2Q1vPRXIAmQi34i3RzQ+pg19ORo0+YymlHil45/6yTKdTmdpRlAiCQMrdHlrW8rgf2g1PZZMpNvBbDHe5wB4qJG8af+MQnok6yFSwjtGkP/OiP/uiTnvQkq6gsD/SNZbOKvrHymflFTeEY1VqWd5u0emvKHT80Q17+8pfTszqsBNurEsGfoscfAgOVviWuukqaWnDOOecYBXFmtlf6Ccx5PzhF7+O2V7qbh15ceDBWmNFVa+YEDk//JhNIIdR97nMfxHn1LWuJUYy3ZA6s2P+RgLVsEedEsNZu58HAo8ouwqmyGmmvf8W2mpK/AlDeahGtmcMjgSUonnCcMVQanVwOUV7rWtda7I+t/Tb44X5wygkMn3vd617qbUu3TrCPvtskcaWveMUr7FHFBI6VQJcSwYq5qtraXNVdO9E6uDsO8UWdhhd/ylOegoeq6UFUJIqSzmTaD8rwPm9to4XndaBWvJD0P4aFkuh1uqE4MAJaMWPpaiW2ZrKDh1pU9Y1wJIgzfZVD2EEdShFUPzKdf3URwSp9a5byWeOeqp7pvaQn4UI07GE2jF3W8wjK2g9O6bg3v/nNOZlhLMXAdVDe7Lc3vvjFL+Zk7NgHg45khpbnMXryTne6ExGstkIMOeu7iB8UxiMYjGFNwOX94A/+IBeEuG5WM6F98Pmwt1fN+atKIdLqRvIsRQ9aCaJCOiNk0ccBlhMqPNf9a4Cg4b42BiGGWYerTeAHwBqwl/qYqHhAlTF76X3kKSDFsYYdw9xmZuU9X4Ssd77znVRsW/KP/diPrRqC5fnKHtiXUYDQlDqhIQ12dptnPOMZHnpC1LJ1q9sTnvAE7FVSCqGbY/GlzkyEhcXcV0P2Xq6TuqukJEIQ5wM1vNvd7hYq3bbfXWHyrF3Bi3FHMAq8gaw3KnkxIAqqSZRwYrlErevOc8JfqZ+Qtzab+dMTqUyhCQvqkxVFOzVRAaGyYKW4o76DdfDEbcI+mnxo5am2UTAWfTJf0lR7YG/n+4p+QWZmUbL/cDvkW0y8YoTCoVD4TQIufFaIYTYLrYqqzEx8EAGuGjNkJRgf9Q/s9AIKw5cmo0y5TjiULBjdEKN+R3+QC+wHJYFROO2009hhX/jCF5KkkF8EKyDlA8viZik41H7PrJBQyFngtWxpHQ2c8CetBknserQ5/c9ZgUVCZFEPzUyqdJAdfhFUTe8Jiz5xWe0Ltp3bygF3Y4mc4ryr6w08xx/rodQKDD32sY/NYuMLWjZwq8WJ/2BZxmxfDZlDuU7hOaZXm7u2dKJWqgdTAiU8egZX2FIkQbBqGY5iQARheCvbzG5cmVrlKQ1XJUemqV2DWzfgRbf4XOc610m3O3hkNupk2ypnVH1VMoRQHibZIk8N6Gev7I2fEk8y51rNLTIzww0exHKi8d3ylrcsS8642uFJVZ4Qqi3I/ERtPO+884gJqyzutUV7cv7FLrGaE0s5cJblQQ4az+AYCKODU8cVkl/Spa95zWtudatbUc/RiHsxvaUa9i01Gd/GjeYJCvXbv/3bxUQGUqYxrBS24YwzznDxRPGqZWm9xz3uQdTNeQBLbok7ulEnJ/He9D7Fm/Hci5miWEa4F4uXRN3rI7rbrLxo7PEyXo8y6OHVrna1AV1w6K+whJJo4ozG7SCBWRB53KObWt54p03LUqAVPJfVyGuBOy4hl5zFaUiAY6KEQrOv7KxjGQqQ1uwAhUHbTdGgR4x2wXDsoDoBTY6yoAXT+0oFXIoRI6xjNMYIktozUHsm/G4qeSSlDBPDdvmW0TUDdPeDHvQgBnhFCwMQjY/CWLyr7373u9tUd1mxOZQFo+k78eOHQTqBCmYPtzaKIibuXTncB9anqjbZ1ilc7JXtIQeeKPJWIz2dZXZLY8Fq1vTzAs1vfOMbySlTNW2qfFghSgzSgt1QFaxPVcQJyWef8tSmSM+mG6IKWkXCd7y2ZMJBwakFzPGm2R50el2BRU5wXmqIFWs/r7WIVbS4aAbxJ2myhfe93/u9DuVQuBjj2QctSwjF44RSTxlUGV+qwsX4cnkAiEyQaSDSSzynNJwHxn65/NamcRkhXRK1CFAlJDz513jFebD1reVhswcOAKfsk0ElVhVDbuv+ru/6LpsSHz+bNvNK9D4yhUncbOERP9EbhClUnamPisKV0EGa7bWY00XIvsnpPPoLqx9PBZCkMqhGohxHE2q4oDHi8+Ddib1TgQj/bwSQj2ZCSYcZTQ9zwGU2xUOl2QP7eoKlclxZAFW3jSHdc1TA1FXzfVXpQMu9PB1qzlU3tIgPC4BEYK6z9VqQht8CQJQgbt/+9rfHT51/CoYiO+2cWzRh3TQfx0ec0TO4IY45Rb+rlsIBiloE65Hf7OWTxxGHfVhF9y0zfoEtHiQEKw66xs79ejyzkWV2F0MzLX9EnyW7cU+xXc02VB6vVD2jT8hQifNHwERjeV5cQCecEsea1axxyhQUVAQJYt4bAMvSgnR4KuQUqgJJaY5mbDgHC6mxyuPx+MZPwzlwOKIBEbDId73rXR05bm0mpcx6hlMWjFhu0ypipUQYBKRsFbSw2L9oPRAK107egVk5xEOmm0q2Yn7hZw+tiFSONNCwClnZ2g97fOi0gE6I9q226swdtOpVs8e6HUTRs9b7TESh2igOiGFjbP+pekXjR+5yl7v87M/+bMh1URZsUwfR6eMrSYTkaI6Sg90cEQhTXD3HZzs+B8IaLc9Y0AQJU5QdEAmwsFegynNEO6wkEY/HFJnwtqNScbJ71ateBaYnFxXHd0hyuN3tbkclT/RUleR/c9I4ipE9OWucsvfe+MY3RpGGODfAJrq9Om22dfuXlxCBgtWDypMjgSN75CBeJ6dgrMN3MLcBqeIq1aw/C2D4KXrftJpXs6w8AZ2OB2KsSHA81xHe73jHO9A0PmDLhwOKTWWkBCSYohG3UcEpvBg/FU8mJ+BWtXGj5/yq8vEWcbJ4V22UyYlOfELsmkfWTAs+F69DZ8dcIlG2tpHxgQ00q5cz+u6N93R2twGqpH2lqJwqTwbkcTIy3KVTDYkIxCcDDUe3be2E5eGh98Cs5akTvYGsbjwjtwPbfAste9Q1l8sO6wF6KK5M8iPd7EaeqtYdC0O2wqChkNBJ2EbMusr7vOc973EJguBWq5i11X3wP7/AuzgGs/dpKXV4vDq5ttAlwe57YMGp3ff5qBLxdDQdMc7lQtej9rba+EoZlOLYQz3hWlUN3jSqHhu+zBgPJamoVB4IJRgLkdDFQnwmEG34Gt6bw24YYlehSFKEEdWckmZLUW3YYUvy/90Dhy4QnrT6MykkpiA5xbLEPXX3AHqosCEJldOdftu/AhSO7GpVvRmUTISFdBYdeG1aAe5jQWqkGJFq09eX9AfRA3s7h7zsFwN6gDAlJB7/cu9anHy+m97nq7KlIu1e6WtWhtGWoZYY+OxnP9tBKFQ67ozQR6pCV/HgfdSjHtV8q+MJ1E4Ed2y6cOkdKZefDrcHZqr32fkpBYk8bSrXQjgebnePqbl9j6s3r1fGO4YtS7qPfVOsy8T5ZF+bA06lB7BILkZziNfxQIHGEfwMglCYI7uDzUIv8NtEvfUZd0gtXDLOC0UF7Mb08Jh3dTL1kxFWQ/QztwMV4zff51z9mHJPyrtzk/ooBXysnRoz0vgXHzEA+JqzGc2tqjuuD9ROSACLHPHMkNenAqKex5/Q2ddyMrnPiztLQxOkvbqusYQQsM7JXLwoBH3vc55Z/IbAAcJ+Z9WuFuQIl7Ol6u/sDrcD9g1io+8OIYsLBkD3UqtjKnQ/94yu6kEuMKJKsTHXdn7/ku2///u/fy0dsyrnI3jO9TwsuNnPrbFniwTzijfA0572tN07JfSspGTOKtqi3IpWHCDpgxDWFiWAb3c+3s21tRAcXdWdePJf+UbwXF3lZK/zDdzkhZ60DGeEU7yWgVS5EtlqLMHYItwy5dh1TyxURQnSCe5T6O8oxC88vTdznMrCI/HxsL/3ve8dt1VQBXp8v+Md70if6licxVbgKFVHssl/cmTPscqAFFR1FNwhAdZYmiziLNst2WrCcDqTN+EgMpwLTll4eIqsKN5AfGrK0DrHZ2WWQ5v4V/vnQXTuhJUkaKRzsB549P45F9ekg8CptIvch6iy/qvkS44HOYvT2vZHPvKRUf2YF1oTbOmh2ZhygZRrZqpuqyCMh22gyqGZLVXghGQ7F5ziUS08SOalCC01B2u0erkdU0wMW+4JGZ40E7Uc0zuN2MLYqO2HiFOlgdCqFhUPHJCpebrWOsFBwohgptBG/TMycblyxnXt1ZjoyVZ8tGKQPWmTdmTH1l7f6aB2VJ02x2HPJENGkh2aKbkyl1gIuEmuzCwsTNH9NaBmngfxhHAR3Q05xWZnl+5fbes8Z7Pt6lwrc+tM/9fnkBKPLna+kHsE6uKkyp7gUg8+ovTEch0WX4ckEFB0NzVnkgZPJi30XLV/oK7iIm+j3U2tjrKUufhPmXCMJoacoUeg9KrAn++mQlH9RMnARziizDZvEovoArYsYJajVdcmNzM8lCeOrQm/pbYUHw3f6Jw9ZlrHehdaQfn5+CX073weGJa6G9KRPk7eJNSfU8ff933fhwxy3xS0isO9aRNESFiC/kUMTok+y8FJFcBF5LB3LbdyNHpxUBjcz16ckf+UzdDeaF2R6ptNIjeV8x/5NdOxXIvGJs2hOUHIuDJY1TI0jTw53DNfbAs26mCNdeh8SbNnOp5E2JSAlHqIIFWaBp5ufvOb81nHsokLyI/MnkSr8gHibqwQ/8cRwrQRs2m72kEUOmp4XEyJ9qrBNFm7SUQ1XOQV/KrRbR2jtvzU7IG54BQ0EZ/TyS9UFMuOKGLVdQWhPETTaIApS+eHaGaqZZw17LmQlT6+QCWR1G22tjLWMWYy/5pPNjRz94CWq/l99tlna5TmI19ExWuOX/cTJvP4ynYnO5RfBXdnzgMKmAESFj6IFOMCVB9KH5nRrNAWkrWY8WwvW20XfVwF+JemFNAp+h33iKKcGj5DFtKKQTBxHbZapSPOfC445ZyqW+Ee8pCHwCkbplj9Qgwn4jU84mfMD1tENCOBZXfewiyhJ7L+mB8Uck6P+ULTMT/gXTl+wdHBZsvFgcBlQwZz8EuYbV+A15xFLdBsNWqpVp911lkDblJC7uT1Y5rBZsV97nMfgafZ/snUDjyaIb5U1T0hTLeHU9AQ+hOgkOjmavrWiUVwCY9sov6axs4quh7ZzJRg2BHrYxq1kW25nEU+MoupXrc1gSozjBCETDHPnAuBI8abT4rT8DZPiMNHmbd6za0OZgEyag410MoEVSaKfwlczeqxFps3/LNAIbpHEWLvAa99xRJo1tATa89F5Ka+L7QJq6LYs1rTtz7kiCRws06gkvgyIIfWbOfzkNzkw9gXA3GpmG3PrtYR7mZwE0wtjNirX/1qc9JBGRxtQ5IAACAASURBVPmYroR0cj2x17yyHUJSviMJ4JeCHF0sBuvBRZ/kF+ciTxkDYEGHZ74lDQl67wM7iDxEJCcPJLBcWfoc5mr6/rIV+tjoODdAKGvb/Q62MiKJVUogN4/9G6YgISVlSBN0eJAyKE9ag+mV6Pq4/OJuuq/JYaOGvBqiJueee+4wiNEJQWpWiFmh8FS9ih8gWNlybFSUXAiix2RuSzv//PNRWkirqSK9mF3kUxQ+0PGhfkZUt+0BRM/1tvN9Ps3W8QEEYeL3N39anvTpgRnJU6pr7MlTjDjwhadCaQAIwyKz7pGkgFefhiUN2YopUG5MyOAPc0HIAnwe8mmo5WMxCzZCvcKDmHm4BkAGICiJO4YtVXXZN60WsLohRoyEYawwhwZnejWThsKlO6Rv/947rJRC7nFeoQxir9UcPPGuvM1tbgPI7EYj22IgQCHbK/HN6MjNbNG9jiWZM2YLrfPpT386X2XbZH51jpoZJ1uFxIJb+ODRRtbkhL4+N28LyGJjdLK03BiKVOJtTIwfWVUiFcBiDEL6UKmoQnwgffD3tL8av+5fcd04GVKd+BmbfwgIZ6Fx+SOrsfZ1wiP+JdwcxKQOFxehte/WEhQnT2ilYzd9/eDSk3fYT6or2a7mJh5qGpl6WHN0Phmf+4ttMjmbG0R7p01ZG6t5Ck1RXPwEWTVbPDGFCgcqRDppi8Q3rCYn+a0Z6X2ZBHQ6kZLwUCyA0f/tWvTB8VyDHJIJBDTnGGLCceK/nH9WFq0BKQuJiFq4hngtqVXE+/DuKC2XR1AMSVu8H3whpDT10DGbnp3ZukowFniKl42TzqZ50n2KJ4faTlvJTSuzm/RQCcQ7ilyKI90Qz1FFPEVtPGSrjRzQ5GNjEyvZiDDU+Ndwc+MiGfHqqgm5ZlFEOcmwUYkH7wsVIYQDjvV+97sfEU9lyn3uu+mZQy9ldjiVDqX08aXOd2hi0Y7HqdpQFVcX8rmfIBScMhfJL76ogLklPqRqWPC52UWyGJUog5gsix+eEsdI9X4i9/k+Eg5MdARtrN0kPtLB4AwxJkTIQ5+gm9Y/d7gzEJN6YAFKiAeTcWR+8R1qwAgcQoZsbeYowgsuuEDABillyMEFASqH5g1smASeblEJJcZUJEyFq4DsbdlxbRuELJVBV9l6cwBjbR2WBHpgpjhFqDGWGSFSNxBJ4I7tjRmxxceWqwjcswrAKZ7uVEVPKBQsOIgtP4EwO6cPzyaefvgsopY0ph01zQIgr6G0cFub7pk0vosvvhgUQivbPs2i53Jq7RbrM1wJdmYw2LXmPOeHut1AwCnalp1DaObXv/71L3/5yz0xphdeeCHI4NoCa8BHoKS1OZIxI8IpLzJBJAapnYMkleGuvUWzpgZGbqr+ZFIJB+j+vjykRdJAmXHNKLk5U2GqtFZgeVjtgTniFKqbSzpQSEVJNFQz5t6djRx0CEC4xhLRoFwynflq2QMp05GEZecEBJClePolmCRdwJZOAUEwMfHIx3eABdEojN1N0EwqBlyWjIsGvBuDL8Auy4bo17Egu6t0iL8mxou2295AlZlDgOKwgmWn7FO+MOLAy3Mw4ada5/CNQkdGW9R8YpSU4An/QAY3js0+gYAyjGLY/NUUeuhDH0rgKj/RDyAg2Yp5x7n6mhd7M4flyRxxykQxk4q9z84TuWCPo8Ufh/FIBQCTi+c4y4Ankww5DVbUkDDPmEhhhA5xi5eYawW08iEc+cvWA7bIXxaS+AdNEx4SBCjTDugXJnfrvj2gExR9lE4Jq7oCprguUDeCD8DkPm3Sky0Hr+TGUw4fnmOsEE+McZjKqlBjq3CQ0Jnt0A7Gi4h9//vf399Vw2HTIgUzszSFqdTQi6pUi/uueqYQNExUtVVtWZ6nB+aIU3YbQ1gOxKgo4cXcmoP7ie002hwVj0Fa3ch9eHcgRSWMxwPeFJyhh+znPv/T0Ve4AtXAlAV5oAp/wUXeZg6t8PGaZgmxrGOUfEefy38kuKhVVg457kTJU8gjqi4DsV0E7sApMhHewN5gq3DUAd8kIKqNkIQlAcyiA55yyin2GzSW4TOUucgLP0iq7T7yAgrlUxWXmuCCF2M1bm63xsjEbqZfntR6YI44RX4utrZU1+ZGVJkDTjUnEH7Bp8STpCHavaN0hHSnxgIgywYxUV63clAeEIpmR94hQPHGCBcGBymMI32d4KbcYjScm6t9sw8nf+JEuqORms/2R7FK/kErs4hozBEP7U22YiGxKUIlY2R3IciTj/QYiYwMRWVuVfRKhe1DLrmhwXU3gQnbGXLeobVkqDSB1bvfXX7VA3PEKdtOjvKVETJ7iFS2tal8i7c39mZ8MQbloj3UKcdoWzR9lmZHQzS57aI4uBIZIoeNI0JaOZy2LCT5EIXojAP8ErxS5CkYOobn2l5fbS/nQlERc+wcBqWUhV8nWOlVRlumXlqeDo9hpKRx+QUJqE8kFpsB5mutXRXYuXumiVPk6039JLbXaXPOeXY4ZT2zrNVOz5pqoIpWNU+RatUAl9pyX5CGYMXTzyZv3wbEkNcKoWVU/W4k00yKCXOnXd0Cs6gSsYSF25ee5iF55gSJDE+I81R1FPQzRxZ6nJ2An4dgVbUxAtzZRajbxemkpCEikXaZBbuPK3kRM0VzXDUBqs8JccauWIfyEy0BsbXw6Os7cG5OrhZw64lN9AHGZ261HVwfolOsh9SNElUKnDX3cCsKWiF0zWZqAo9nigz7kRXSDHRb6oMkLg797JKD63mgL5IlEwSV+qy7mq2wW/BRQF0V/RqlVWXK+RPIoTsU/UUXXZR40M1lBn2ahV5yySWkJ8yjiKN3uctdvGVwyXQOSDQTL0+qPTAveYoYZY+qkVOZBEhoG1fTv645RQ7iCWLbJ94P0RogFPrc2ogTOecdrIcOIUjSE41ZThRT6DhAeNei8kHJE7LiJW8NWGwjia2D6L21ldQ/4m0AC+ZXkO38CpNFecuGF+9N4gwh1yiw+okgrOtElfATUVSfk31OPfVUP/HtRDA1C9Xzsl3ljtBMz/BCUkaTsaKY57Zk0rTxfcITnuDMQy0SfPP1E/1kVrBNWxEbYJWdyxHTWdV2fGUIRJZHyCN8Kk2w5Eki0BvUFn4Pdn5xLFnWmzNVX5niBC4aitmP+pUPX2cLLPGq7N7wfXxVDy6Hoo7hqop0A7YcJHZ6RqeF9ePsRsuDSkwf2QzsEI94xCPKyXPg5ZiBcOzNHrCL4L+cRS1WlDJArfJUNQfvUjlzQBplRocAWM0ilifpgbnc45DaoJwJCwR1PkpFaWcUM1E49dqCjmzYOPtlivNRYNsmSbU20Jz2oaqQvPhJCxMongmvH1bCGnKBLajnY+pnHdq9BUsgmjFjtWZ+rA9ZV80i/YPmc45dMzkicPGvxnTl1oQH1LfVk94kLH3F/KqT0716Emzpbe5Ote7yIi+5REEglzm+F4csFuq1HUtq49abA2GGzAaTWI9rXzyBCeaFUwbAWjV+Jlnxi3PmgEcl7nnVMj7QYePXbiFFeHRBg+XRpyG2fV1B2vIhMpAxfWzpSF+AzsWhKXMljLcdm+zmQzSLItmnuMNNo38EKdYbUIYJQm/jAYu9mB4n2CbNa9Wk8lwOpPviPCUfPYl5wAwmLF86h8tV7ImOEMjQ7PVipLPu3oNxxDHB3TNk8FTMrO5XTuyvs8OpMhKWX8aPkfj4hsdULleHgpipTAQMo+a6ZdltqNKx8JFzkKXFw4hMcXw9DPcxU02rPz2OVKWjejZZPvjvqqsntKJfc2hIDuZnJqqLBav41TN/MlS54sEpH1pnzxdPVLIDwClraaNL6+Y/fvZq6BDF1i5qQ562zjbzcvCV1+jd735390vnvLQ11hoSnnmLmsN+z8MrPkeQtKYQTVvJbedGWuHAWWISkIaQ6/qcAyeLxKal830DQzCu9B79EQkohCG2C07JeTDEkPXsVTR0+WAAMGirpLxNq3006WeKU8aJ6n6U8pT1g/sQvSgqCed12/6084n2wU00vcfmzQdC/kzsjq094xnPoP5gUiw5nEuVyUr6/KVC8k0lMvBH5T9hYWPHsDZ91Jlp2zIsN0IQ0YYdrTSK7xKwrkW22yhzqO2AgfFiZg2mVHuMlQMvvlGG1cQ84512DgkgQBWio0qZDc72aF6cl19CGXimLn7b1XlwNN8teJNSpBEt4kxo3hdHp6naCGWKBzYFB+jLmWHLxxfxLT2habLW0/hyFBHHbGEwh/lXGv8CNZ9UCa7Z5wEcwhizE5nCWuVL0SqdTdWQYflgiPiIi4sAZ0sO5B32me6Tet3FwXT+VsgpMTmZ/9DnhCzglbfAItbPljDsyASmUrXR8EIJcanjaEKNQLHHGNJdsZPw60xxymqxwDIA9kafGO8PfUjsb87oh3oj0ZBZYpOatl1sgok2owg+Ps0TaiAGOBZ8JDHBLKuOdw/LIMDyBJ6CMwNBhiJP5WYN9QRVyRD1w7GIMwT5ghKkLH/3C1vmCQGQFVWEA1W1yFUJlEQM9Hd8P1MeRXOGd/qK+Y9bX5AdzXTeeecZX464/HUHBNTnHy8iFe95A8GIpCAWQDvZ+DofQQ4zxalqzzr9ALN6nheZ+ZBoiEBFVDASvjAj9k9k9uR1RjDlfAYvRPzX2vyliU98tFFSFYkPYIEqJsWoflajD+SqXpP3ohe9COQR01jBfGAi8CLKQQdY1gxcs7YmYxIgMdWWhY7zpHwgBZ8PdXMEj2Oaxc+rc0z+1XcJkkIpaCMHN7pkfuIABbgpgK6hBDpOTW20uWIS2f7QgnBWbdlDeFcRtzfKZKoGzi2fA8ApU/84QMp+TmXA45oEWG1n0NZGzhs2XcxyXNKwd70FXyzCciGCRS7yCTWc/1pOUwNBgEU3l9gX53J8UhwNEf5yNYJZhA5gQQ/y0MImIAyuUveLNCbiDDaKYS6BdIh46s+AwM3Vghc7gYCJ5ybAtrpudOe/6leCZ3RqUiTBh+BmH7IJ4dfJXGQ6Z2K0vSnPrsrQpsWUQYVUVZsN/15gZwPYr5S6qra7fH4AOLXL7thqWeYfMx8QMe2QpsWNcPJCqT9ZP5PkjJAqp0bogxxx6YBw0LVd8ufpBraIWgQB/wIyoZ18iThDK+QhgdticSfd0A3BxAf8UC+LZtNkowdUGFyS/tyQjsYOOlvtiCTerfgdT5QuW8wR8wWNOOa5AQXVXtHDuoIW7zk04TKqLICOYNIb9EEHCWAlDwYV6L8hgTZHWfGGcIrt1X7mzkpoe8KhasGp8TO2Vw6UKXM3kT0cXrWxtx4Z65XXukQ0IGgoVUBhXfINfqchggCf8g41VlAaUgyGCxaASKX7WLQEMR8pKTL+ErIoMkAEWhGvcgaYuOHJqpNSa2smf4eBXZyHHJCYdwVFjztSOSsHLmGEfqDDglQ64FQ4pcSEuIMgDu65ZpH5AtuIBSc1kz0BFldSPSZSAlIcWoGzPrwVyDNbyN2ERHQVgZQ8CPHX9sYRJ1hwaheDa+91kMLpDfBBqxIGz6mX7RUMJmKFsA8Dhe0VJGfaqw944gyhdUQJOiApg5KLD/KhDZHCPKc5Vm24PJt0hZgzXIciLEAxHA0hi5q/VlcixCmFmwU2CgZJD48QzxzHalcT4cuooiyAkpFx1GcSDVRWuWpEbUnHag6DDKsPip09l7zJvUDbFe0Dffjf6iuD0j0ilFYuFEDwuc99rma63DQB2vtgXHfOh/vrglNbHzs2IGyrbR/PSnAgRjnC0vST3kY9GJ52Q2bT44pqYylqC9mK60OuuqBwoYcgl7UHuRIOUG9IRhFzhWfabjXmzjtUNMwic5FQcpq62jmABhDzmWBuk7NsySz8xShZNKamflRwCo1FzDEWq4KxbDQEXDfAkFcMZUCqvA6P2FKRZZwYBP/QanOAZkorVElISgvutm+AKiKYCps2VGnUG8ETAp5YqFpwaqPJOSQxWcNSFDAkc9qeXwJODclu3TuUhQSKkZCqtW15alV1cm16Lr+gItG5wBN7HM2LJGLtiRWR54VKoz/6gHISCoRFbJG54ldBY0JUU+u8yBCJIHMlTOx3CCAg5dwiUGvVH61t59jhAtFGNch943GKVkutSwUiBtb6AcgKLAOycUwEK9wZ1RiVZhroAXqiMO1AuUNsNHbO9xhNLYXp8YantE5C6q0atdk+X3Bqu0PDJGRCMzlROggdHAVMX7vl9krFEykx+QOppnyxvaJX5fyBe6iveEW/IolPO+00Eg2EItpQasgaBCKEdMDLssTHfyAe8/vfLz0BhDwY9ZBgBbxAcCQU6C8Bs5qgXeSXDkGDlmfNY/HhlPyVFYlvVW37PFeNCFMSEyQTnqX5IkAkFvGKgjXIfq6npDBYTGNFVlJ4faL/Nt/1hG/qne98ZwX5qPY555xDcOtPybfmeaAPF5za7sBZToR/a1IxVpr7BbbtY0HiwMIqzqreKiAO7jj94FM1I5AXIIiaE3bi4kDloRISQHBePhS91uLQW9KwMIIe8lerPOVFP+EE5Sxx98UwraU0H4K8bAZAcK3LBWEQ30Sr5XqGZcdVEcd8J1jl0lPsezNETwq9/vWvz7uC7ZL4yWTBD54LqBKbVTruJwtObXd8yQXxPifhWyrl2N12S70s952RU+PbQqbIgWGwHhzBu3NEAk/sDzjpIG+zIIw145rnvMAphnDKwiY6+eJvWc9gkRu9gDbyB4iEuJGB9os8JZ+eN3VHh6WlskiSE3MAAGZh8UhYolaZHjULgHbZaVgSWUWE7iGSM/+ZSMyIza447icLTm13fO2ENl5kjT2T418HH7HdehxI7lTjYg6znimGViZCuuAUToffo3WLpQI3QCcti8Tqu3CDUAlOwQV0Nc2LsQ+VjtsiszA4cmXgQT4GpwhTwCVOCSh/ENmzd9VKegBK3YOwNEHylCbw2yDrQVhoJbeaDkvtxb4ROTnfETOZOKmZJRRMz6IPPdmCU1scQbPwhS98oQLwRKZaNUT3Fkv9f1lbmYcLi8h10KP3eGZbnNqEl2EnFT8eR0Pagv70RD3MOQA77t8c38Pj+DjZ5ycqNvoc8PGfQnvFpwz5TeFiyhjcOZRHOJUTyPBOffqPpoqx3NFSYSgBSggXFDv01AoVg1aMes7K+LV6npmJgLcnUo8TRlyr0PCrSLH+lTmglAtObXGwMAskAky2LT3Xn2yxsMuyVpy5HhKaKLEbp4TJGwWYiBvuU0CZx3bpuJyzbxZw0YziZU5KBVLSW8OAiU2Np4JXGBZpST5oHZhCkDEKQRbSkFg3do7IQYQs8tdGTeBjQXHzCpGNOjnAG0t9FMrqJy4CYFIfaGXU6LAoc/KjdpGtmClL5qTLBH3VM1RjFw4xznQ7N2zUqJknXnBqWwPkul0rR+7EeJthCbSyrfIuy9cStTKjJZnih2jDBi4inZKkyBfoJDKR43J8jgBT08eCoOGTLgUZGk4l5ABhtSO2CFb+ErVYXUsAFmIXLLPmA3kRiBDt5DUu8kxsay2kYDG8vp1gFf/dZ5QpuThEgMUMSq3jz8nkYqfxUX/eDKyZ7H1FRQVVwvLpDYkJYsYXUdWktPoUfXBpFpzaypAhQUJ2mouCEIwJe7RR/SzC4o50QDx62giVuDViYYhRpCRdR+S54x3viM0BRmvhI94P8Y2iNxFgYVY+lj0yCKPkCxzURZed7fmADdETGwklCwjCRH/x8ZT0HFcmMdUiOKtk9EfvYtDHH35SNMZKA9WZGAWqeIfZbxBw8FS173WvezG/BKMVx3R4n/vcB1bqKHXgAnoipKp5RvwjFBSm8BDjo9v/LTPTyH7LZWZnnYzm4K2TZc+59IBiQkINepBTbMEja49jFMIbrzSy93SCTEhnxBCC7VrcVwEQDzt8gJ39hqEQZKQalD7BW2QCWZwrHFm32ut4N35k7Jv8OQs/paBb3OIW8byXnt7qmlIVQHWBZscAp63DPHNb5Km183bjBIgDpzriiPjABz4Qn71xFlO8QOk7lGiQzPMPf/jDEUkRBslE9DJsFCFivOqqE1j3faxA5racScZkM78Sl+AO9Ryph5XnH4DnIpMCi4yAL7AyOdCz1Id4lXtw/TuYiV81vCQ7bacJUnKRVqgD1bPPYayIV+RKMTacYLeFY7jgOMzi4E7h5Zy1Ks8jeT5P+DxceYoxiIE5DodEG/L5Lnu4Kk/RC3ZZ9OCynA6x+INHFj8Rhm8Bpmlwhh0vwiOWMkuXsYzYIqXthCaIEkJjY8eR9+R3RFUrPhrWiMlygHekHuIMi6Tp2lHogJ9gJY0VRUXLK15grCI0UyAFuejFsczESgPFBpRyQK/M9B6Hw8Upx02LxznuY8dToeAUPtjJjB2XvmlxPDnJNUXB8cUVqnQ0q3TTrHqm5++em3ggTvOaH+Wi2zmLqwNRhZ7IR/cud7lL4srXBBNCFiwjAZHUQAmuCotEEzQEcuhZn+5k6gOv+WegOEsvAUrFPfOZzxQjKKfZVQOwStad20H/uuDUxMPH4Tjalp2QFjNx7uuyc66Ce44VxVeLerIu+d5+J3X+wA/8AAWniC00GhQMgmardTIiYiXH48m1DhyXOoqTGGxBCsQ5gYt6yBtgVcByg060oQmSs9h2jQJTHRMeSYfy2FHK2p9Ug1ROtnLoqkhzwNEJbYbCoCfA4lG8Nqu1CYyLKBTMCFpa7uYxLkISeVJIurX5TJ5gpjilnYd4z6h454EJ3OdeBrXceUk74Og8+XSZJMPXvva1VOOy5Kw0jgiT5NwnE2palre/m964Z+nmfA8C2z4kFntBig4ayGTgoeqDrOxTw440dPmEoGgWx30B39/x7tqfiJBl/sif/VFxusiXFLfHSbXg1Nrh65tA5I04SdEpOONtT3npqNCccQoTxOhmrUYv1kvYKB6wjtd2tGjyn8hQJCkLz2Bh65FTPYtgN4x7J9EJb129ChAHLyICYpskQgUjcxGstK7VjoFmEtvHNuz4tBcJa0Q2nbPKOOtXydSzJHDhozv+5FMj0RDq9gDCl08cMiiwPvTQtaK9/EUNrcEflwgSeinFHixMTc/umjbZTO19hsSnuWnM9ol5Zr2ZHGrInk3taiViZ1v/rVbMlOV7aYqLTMKopywLGKHDdEWb2LH7D9cHA6QCBgsDRdNpuo+29obFz2vUTzAIY1X1iQN5CdKSF8VC4ECHs+eNCSZghE0rKBPKyaFFH4nRW8Iui0vDK53YoivAd9h68ycwh7MT2BOf4GQfayD4E4QPzCmRjkYb1bd6WG7KhYCgnwZK6wdwPNq1jhvaLW95y7S6tWkeUmxtcgol58I1T3z3cRKA8CsijRkOLvPTqky2+Hxa2JsqN940+Is0e/7+U1gMMybn5k1ZVva9CFPWgxuZ0mn3uMc9EkZyqhEZnI9VhOJl1AuzYxHalvkHmPp76SUNecELXhDvTbY/aNKzaTh4J/J0Lw2LB1PPtxjmiFr4HUoTXDZJcEnYpWbALPKRI9ZsxIgtJ5PJfd5lhXS2JmOqzrw6mZg8DFVPCCIScmJYe0BKnjLskKqIuhxoYFwRyWVL4tNM5iB+Z5ne+zIiz1Tvs8ZI0YeCU45lhbawj+Es+qsSPed6z2REA/CUnZDkQl7o+eKWklkVdmkRl+gjGUr7M0mEWxA3pS0V2idbYerIL6qE8+YB37F6S26kIYgW0Y9gMpgJgtoAGo/Jzx4QEKb4lMb3PV1U/iqFMdR56eavHrrquYwviDnzzDNhX94lEDFQkM5wZw4D2R4i2jNcgqpVe4OKMb+yETuUKh/bCXmNvJke4CIfN4h94dRM9T7UY1Z+bfBm+C9UchgtUZPsh46P9tQjJm+LU7g8a2Rr4zVN9xtNLZF5GbxImuQCtUJL8c6n6FFzKC+TN79/huAmHJmxs3T9XXv60vI2xJhmpZic1Rt3+pcrpYYTyiKXUQkZW6BMrqH2K9WSbkXDorIpblVIP1ETqHhkOh78KkMOgkH4MvulndLQC1lF0SO4OY9tCHwccuQaBvKcuaH5NokzFSO4walcdi+lMzowVK0MJdqLzss3onp6iVjHPuuJ+bbtAZ0pTm009ntMbPpyFyTYm2FGi93KNriv+jgURk5Ruum1Y9Kn2mSih8VmZj/5yU/O5cmA21oSgZdlfQ73O/FLIMugmSwz9n7qGD20e9SkTFskI62sTd+dW37VLZgmn1xD7SH5ReAE40h2o2aScRhtFd3MzUMkN10sN24RCZNM0ygiOdnjLfIUPY5TK8WT9v2c5zyHZkeWrBpbS+bAUcSbYDHdFiMGreSs4agMY0ouzqFos52bGIqNSmimuZyCiBdVulnVaZ70kZN3nwaEOxqeFs6Zn7Ifxr9ZVZ3DMMN231elRI5/MSGb+mBiLzUxcDZ2NFkCCdhsrWrwlIm+lyq1Fop5SWQY9WR6DxXdmjIP4UV2IOqVK4s7Uk7yE9EYQc7yUMipjtVOcKbiRT0EGaTXWh2YFLmnUeVkgpX3b2slq34J8lEHkh0xyulCL+oorJmO8jHTaoEGJ/Heaq1VHs5UngLYCTzUMTx7/8koWn72QDXh/y3gxn6DbKgP+W5f3UKMMtEZPbHU7FyqgRmBBVQkV9fNTYsXPA/uWIT0PsAK2TvEAUuFbhgtzPoMt7XVfiZ1RvBEk68tCO7kWmYpKbDNcFogjDxLayNz0QRLiJtazoCseL1LCZoldn4QXMrWcUsSFv2OJEWGgIbZish9hj4Xyq6t6uAEM8Wpwe3Z2YsGm6uxmAS8jW1o9lic6M5Kby0ooYv8lPgkrWm29BBEcjhAmdMF2EAQt9Yzqo6bD9Vj8vO641uhVvgXKxCyC1NlU+zAKRKExalQ6tLImFOb1pyghHOsIUvhFoir6kOGBRMFqlqLALV5Th6MYNVMBqRst/5qL7IfN69cw8o+S6TidBa6CtGhN/QbWQ8m4te8Rf5qZjjhk5nilC0i11TAgwAAIABJREFU5Gv/phoJKjTgsBWQa+zkSARUpT41ivYBG3tsq/3z7EjJPOwwl61YmlxyuV9hSjWQU+GnzJtyxrCjCZP8lG5nBnIehbIpT3uvjRfp41PTDiYpcapMTAYyC6kBJYR47ogkZUahrpWLUWIqGRMbb9PKs77xKa1RVMUJ3qym6bPzsj8Gpzj0oMxrWyaRxxJIJiTHpktEagWh/IqAdw6c0uemCRKxWH0sfXSF4pWuoEwz9L8+RGARlhkHN23aRulnilMbtSGJKR0c4RhB6Ixgnh/Kve99b8MmfpAeNzZIE+7CkxgmbL9IDeYVG46hciXfrBYkQ8/OjH361hrW8xY8ccNWj1Kl6HGDXOvUM2CUJ3zFaucGqdrsVhae9Rb7fbMIKzwkupXcIXY1Xxz/BCbWYDE3VlC1cnE8TLEZJ9SM4uzKQus501M0OJs3Oim3eNm9NLmVRE9VTWbHKmAxJddKMZHC9LdCmyIIU2piDtD3x9+K2NFdM8UpoiaDa0e9az+Rv0TYsKvgEfxkNzBa1gx9hDEuiSELN/FJQmuSiokPpric6e1mfNVe27/aE6aEmMT1ZMjoswPhTp/zhMLQOcah201lYpT939+NrjaYsBM2yooUQPDMK+wh3JFaOw1+Wfx0QymJin2I7Y2q0ScxM1y8NOnUuQcMOpS7Dqs50EKgkjrTJ+ARKoDihv+2ImwbdLfuuWoag0Wh6FfVCjAZ9/xqrIly5oCH3AZPKE5tJKEYSNHp7HvU9cBHnPfsDIApZzWMtF1lPE7JX9yy0OcstVT3hNdYNbS7eW4Gi6m2m7KUAvTpemK52cw541Cg4DVxtbh07qwmgwuyF5K7SQ1hYYhUrTiFiOFVlFIk2H1EOiFcWCehkikNhgpMlIYDF4ISEhAXYWMGZLQ8mzSc0ijTNa+ccsopnEtXxXvo2Y36SjUkJkbgH+XPbOJh0LNnJgOSzVSe2rQlEAqbaK+AbsEp4yGMmd3PyIkJxU1m0zxb02dISLm+mLWUeYJxT2HKoHKig5W2ZZuPGU/R4CljGagkKxJf7cFqqT3NVFZntdqqo6lJb3/mvRldQ9vxF6go3psdFE9rZ+79Ic7Fxhb6Jmczm1WyLO1wnhsaatHIdd7Mf+0TXsQCjRKgWlOaQmwCjuBRAJPAXAJnVXqX2CjyOqcqcu4qEr018+ZD3WVPMuiUPlnRIpPhtjm7I8EpCOWsJrmmXBXL/cwRSsqIbcQYg4Nmpw94gvBCHwYRUGCcp3oyQSRw1lw+wXIggUM6B75U0jXcyHibNtXJ9j5YY8LKRec1jRJbZkDr1r5CifbhdgAWk9hJHe5REGrmbFRr0ywzcoHRxPXYLaznpkhlaBh2ve6n4ivXmtuWHqoV6poTZjN/GAGkaHOALLGSDYRpicNCGtq5DYp/CT6iwXBNWEXANXNe9cSCSogLiiSaxYqzYUu8bV+NI8Ep7CYTuFNIUfGsf2xuyD/9aG8BE4MhoIwZAsiUtVBtWea3Uws9DYgQBEiRQXLHiTknH7KeSQaw5KYIlkpC1vhK2vZ7yner5mLrc3qlqtJBrBnNYeYjSOLL+VKPr3NriTt4SAqIm5KRNXludrObNXEKSRwJnUV/9+SUTdHULV4F1T4BUpQ752AkgEqaAKT4x2iF+DNcw3Dh0c48KbT6+F6lptD3KXqORpppyuXvXjzgx+ffmsOR4JS2wSMMYiymwak8pPFRodEoQMGH3GH8TD4SFmgjiHWYP2pdRu03QkQJXAA6hrDdExHYXFjEaBY8ULLvmXmkPJSzLdqsorciF0y41kHa6KEtdMJJmaI1nMMhmxcKDKrq3kc84hEqb93O0Deqf3dBJROAX4JpY2G3qn6RHIECeaTcKd+/iGEpTVf7Af2alGe6FgtJyc1u5EwfADKfcdgmmLagShERRse2HfE2F09MOx84PbAJMiUxPpCqyGs+xWthWHvXvnU8OGXZ6zUNJkYhenIqArPAHuEguCcgH07ZeYg2zDemJtTQ6c0ttLXXgAjmOJHSnCPlixC3t9bEzYeAySwnMfG68qty+XOplcAGwgNB0tibmy9u+oR0M6HzFNGJGGgDsIyjetDyfFT+EBW9ZmfGWdFksH+QEYgkNXaveCSYUT11/GYp/Z+YsbAJCsApUwIMtb7rMJlQU+BMwBw7nL0W3WlcdnCuE0RiJJnOwbr9lbP7Dnw1jgenynBSws0nvWmkHTvifBiul5pmY8Hd6N8INatE/daZQaZw7ty6RSXauGg9/bV9xJObsgwqw00yR8fSGVXSRmSR0CVH4hQQCY6A6f4SYmtLy0NLlGyPoLWlh8e1hzNaA9yegmR3/nP4FdtiIAwuOdGCx+nUcMrAqSdQ5vG41QrTLu2CuD+SvilhNPW56YpawkABJqdYYmvzXTwplXHkOLZImheNb9tkdmm+CWZ377nBT9JpM8UpTpshBfo3EmrwiDHM4MCyp5cRhslNBpt4zNcjmyFy/ayzziLFUP0AVljAtaXY5URQjN2HrwPbVgn3s/ZdCeCj2caVgdeVf9XEv/EqtuDNP+fO++SzKg3dBHmEQpIg3PCqlD2fY/QInkRRvaQ/9SG+z0EKuh5hbaTNqGcddpPMYkNRGSC6FWeLu971rlVpVCdEGdfkLYkqyoWPCgKIZoiZX7Q8VlR9blegcjJkwyYbHjHKfKZum8MOKoEzFaN59WchdtOx05YyU5wacG6GbOKQ0YUXXsj3zAfpQNUikfLNtR0Vjz4DjFzcyHJPhuLNSJiymxGmmDYGHOXTIpJdJj1hiroRvcnaYKn0nEpoRpqmmCAPifTSmJ0JpdgNDWa2SoaP18DBzg2ZW/w2UR6EqeTJi0LkbHw5485Uktq0k3hkbqwBRG/kAJcR8lQ1twRj0p/E5224huH7bAZOzDnER8XLMXKaFGLBaQp7KnkqoqsKEGx9t8lBVduSsDlAynCDM1G9Wl3GR/bMfF6fKU7p9GYYw+5es5ItbNQj3QrDB4m4dFLaiS2+V9c5VmgjJ1JaDx+WzIn4Cg3QeogkBJM0gZROIvNdzsx85Hz1OeOMM+CUCWdtkASlN3cVROJDqHWTQTbkOEx3d9HaX8mwbrUj9JVdnU7EosTgQO5oBldbm+FBJMAzRtbW56gAAmkxDoQeMgrSTGsxoOY7yIWHItQrJWo1ucleayPEhfle3W/UwZPSn+QsOxkdgnTvaozteaLMZQQJHTP8kFzE9EofbRR/yo4EDgyhsSdl+Le1dTynZY5xcCSiNUF5CCwQ8KGi7KjmsSnV/Urrr1a+s4dpkUObTggCUzt5JJRccuth8dDh8xKklsC7rXlSE+RgjlJCC1lmOaHP2LP1Q+tbqx5y49IhZW0oXR3IVrpxWJNXFTS35yYJNjq9DSMc90sN6dEZHVI5PmGSaivLlANGiqvudkaQJ5p9wqhJ093hZm/2Xdtb/NRrdSuXWdmk9xWJbJLuKpnMND66+pX7+yhuwGLaZvfEKbIM/THmDAKFoIiDqyGrctIQWsmzsJ5udis3J0NnqqVfzeYSvkNXtJbLBoeqaN3xqAkgpvWt5kPKzsUXX8wYWrJSB7FJ4yfVTL/3J5oWVhsjqZ7BcaNDu1dz1slNa2gLySiTtctkk086xEBsmmFrepCBSKqNFw7hvPPO63+dhPYmBxWGR60FLTjV2i1beVhwiqI++YLpiVP0KfxxpsVGK7+1R+RWsxmR5LWuKdPZ0glKcXtR7qrmU0WxG6045XWsf2s1ag/t4YCymom11KxSn6x2k8aSrnWjDYDQXZwG2Cg2rQn9q3gAYYsAtxyCCCQX7MGmGdbSG+VaJ+twkMqlO26cPfOn4mWkCHpk8FVvHR9OzZSfqi4bC4lj1FQudjRKo+jcsiJ4h9uKidmtfBNaGr3KECOlUFYPf/jDQUYrKPR8aFtGn/kQB/BN5CmuEvHzquVAy+CeGrsPI8AqXpyK13rcjA5If6yR/VQJGZrfaawpTs0UrdGH/oh78pyaYMEzlfZs0e6TUU45Geoc8JFVqg5QlYGyUJB8/XWgSLv9q4e3tmfkCmvylClhk0DMycGXOAH0zy0pQzuwwNgU4zLiuX42aiyMNE1q9Uaebmh+bGYyN1IwbtMqHXD6VZC89+dFnqqqReNrJew0l5kyYOCP00r2z2rmVjV3gWte85pSohJwB1xaxpe+NgfqIWYNLiNKGaGtPX95e6160YJsmgKZDlnrqq8Ec1H1rJYaawnhcU877bT0A1xjA3WYHq+/qqCZPBcvFM8dB90Q25BXo3SRCx9LLKAB1zc9+tGPzhkaY233KmEJiGn2qv7Nh3HkX/Uh+zhbWth3ncxyasPjksYe3T/DpJQn819MGapki+3IYZGnDhiRU3VwQzwxI7O8WVusWIJS7WyBlSxQjA1WMr86JrIl95lqh5riRC2Foop4J9ALMBd0QDun48qtXU8usydLU34lFtFVa6EL6ID8bkiRju/QaywY/vTe0jrGUGDNe1NU0h20sbUV/R8aOLUlTbBvxsNOSxl201d2oCYB1DNz2iKrrvXPuuoqF65JeRHnhbTqmQkDDl82DgScBkqYHVMLuclyyrej3ErZM8Mks3s5WRlFHt7RIucQSmijJoxMfAB638gW1l4X4ALdgLe2VhPQxyyv+UAQpnBJ5qt3KVbMZ7tZwAR7PqhEIYcSOAcoOlY8cWlW4ZQ05IsqTnF6AKxVfZAiwwEqVL0WlVuYZE5gBFgUkAEeYdOOS8/cDJ8PIxf36+jFML04bWzkblIr0btGGXAbfe7pJcAGwz+Rtrt6cIQIxpvE8U+qWbkrgeBDxCMHuYuoP9g1y2LMwfTbUwmPjM7k4maa435yADhlFk7rumL2AIKMa2vIJMs+hKVpYXrxHtrNJCDJpyBe4PZz/p+mpt24I1KipWXDzxm0vIvwqkZxoMrx06Ee1jwYgRTpQzOLoWA3bZykFBxfItMbIIfaIlyQlF1rLn89Rsak6oIzHFyOHNiKCGKFa29WA1KbFRhJMhHrRNH7itW1+YonMkeNidJB1XKEhTAV9OQsEpdgDu4GaIzrmd2LOK91iqM2gsIdnKdrbew+H3Zoufv9qfBTG/lPTVJnvo6GxNwyR50QniTPnpmgpUzxQjlRUSkyHbSRRYKRLRPIEnXOuZQFcO29rc731q1tv2et5pYs5lqtZqQDWKoHHci/8cnmq0EmsrzRQ0UQtiGxGECfjrY4zBDRqTi16s9VXBKEongyNbK7gaQyBCRZErpxtHlI01Fcn5+MIIU9I6hW6Lk+by381I4glX2EIL2jwv53MeY3LckzQpwZv8pBaUt1M+nt+XS0HIKxzOylHeoMUKtu+PyJqIGpG1ECqYFRJiC01taMb31+QA85KEAWUifNyO4CrYhF5FC9RyB1MoHApfc8p8qRthj1qI2rGsiwkHNXEV4kQ1o1TXIkUy6gjKTgAMWOIkiGCkLwc+LlFEL7jo/oqrL6PAdz/Om0wgiCYOhMQ+/z4vGlmaneZxvJod8d9zhwRF2bpiQa3A3CEo21yzrY9p0v7V8igctCVUlrFbA6jpMA8Ka4y+nM8kTma2YoAe2Jjb/50/yf8N4m6UAfGCEYi9kiMAapE8tOkyXRsJnGoQTosw9g6Kx2w2pSdeCUxHQ01oaoivqhmETTJ0pkyKPlYcr5RmSKMlzAMl4mvMwdBsaXtQqwm/aqOvDqIs4HNOUsWEXN2rNpnoebfqY4ZaSb+9gOepkLst1YQSYEE1g3N7GD+vQpAk5ZXYgVkaeQvkQwyymxNxNBoZkJQgdZM4bZbea5yyewWGMZamExWOEqaV+BFMgg7mZq4t/oYkCEyEl38xAlt8oTrVSeIxUMKjhV6EumWEIu4CC4QahEOrMxoALJsMJIkLurDv3jewMa2rES7QdxRsYfyXONr9Iec5gpTtkwdxndJgOQS2t8N7mdN0bQ7nFgehZNIyBHhPQlTcQDyPkM9kEuDlZXNR86EVqK+Yld32cbAQB6VntkMv6xkMLVZwCI0VZDgAUdrZgy4ZEoApQ4PcPTMjhF6Vt725D+KeSgSpqHqC6eItzuKJJktCjRZghxG3XItKo/5TytpIM6zC22RlCd+RjbgcYrkiO7fY+vzxSn6F+bxp8a04nIC94uJKnEgbLxmnx0h42CTI2pwIB3HVgVioTcZLlme8epi2Hkob8C+4fhkjPRw1aPPRGEk04Egg/9eL0WUYLIPgRGK1nriIc2tgIxbCBxVtBLTkGme1e57+dXdB4wIlBXQ2gCC0E4mF+R4pmQJH0WVfQTAarqxjlgBFe9QhymkhMVo8sLnUbpWysJrsrtOJ7PFKcI3uWowVY7GrVhdgql4uwFZjTxEk19mye2QqSESChbrcOAzLnqqLNFpfKlo6CtT8kNJAWheB5EUaISjjGQD6jn9l5BCwDcVfmjutkQ/AqR3TuAVNJRdCjMN0tF8y3+BHYpNgeiU8F3yZgIS2JMNv0LTc5NBCGwpdsr1JziyReXMgtqUfKktkkIr2arD+jJTHFqNz1IhmfMJn0Qs21iCg0hDa3ogDzrTF+72bS8Q0fTFMfKjoZAi3SEPVM9ch/NruzwFi0Fp1ipUgTzkFN+dn5GqJOmMsCahHimkTGMkDrhFHkz5zprQ0CAYnAwE3QgvY8qp9NQ76iokpI4AxYf9KAHQfxpvflqlVFVNgG7puesmdxZ13qZdsyoo/npROOU/ZPbd+zKzEDmNI6DpmA3I+cjNfxqKzPRdzDe9k/eMaqkGrZrNYFWqO6awI8uYWayqIAU9EEec5eniVhswAvFy5E6mIvRMNFbj1jvoDn7LYLLRcRM3QXWdan6EJPTM7W6UbIIp0H5O93pTsAdshsOah0lOiIV+smIUJy32i7iMAMfSFVV2xUHY/pslS/baulzzvzk4pTVbgpGJOGW4nC8jYv5xrRgvuFb7IQdgoACyN48MlJCnxmAagnK5MQGB0KMEpyCVpgX8xUkUdxirra0AJCLajh5ciuPbZQyiGDmRhSLlbABVJ4s0T4VOKY0YIUZxHk9vcpuG3uC8W1ewGeXciwpe5VRZi7kOxrtGD3PRuEAcCK9sKhutYuIeyqMlrLlACkja+8cJrtRC3Zvhtpq55xcnLKFmnkUBCQlkEI95DCd7nYAEC7gMtihE8EaVwUgTNkMRu50w1AgsG3XdDQMiA2cEQ3hxWXJNg7sQIkV4n5z2IfnMvkAn6nvSw5w2MP9S4LLT1XFzZkPH1urCSd/ZBMwAqO0D/oIFsPhCRu+GCxF4MLFaIsK0xpk66Su4k4sTgmfYJEz+eUqM9146qmn1vyhjCa5idEmvCTffSbRKoVHsKXrwamcwtnqUrSv5AJK1hvX8KntYNccjR387lbbODjzmeKUDWHbCwxrTgDRcbZNokoBKU/MVFM8Hp7Qx+E4ArmpXNxqAli4DFsfFcO7noAk2CG9j4eACTwBLLAV85MM6R2IJF8CLuDGv15MWbmtqzqWEiBKPIFZyQR/kcsgyFZgsaYV0gTZy3UdnMLF7Munf/B0nOpFPc8v3xUY5T5xWG+UqwdcamXR9Tg3NGlBW0hSGmsbQFMim6TOeEnClFGTG6oeno4BmmyWk1RsJpnMFKcs9YDI9roJ6AAR+cOIKkjVSpTGqPv0qUnVr3KVj2VrPn0Swz5LpdzXQFirhXlIznAt8ASthmkNrTU8uIfGFB3u07Pm5cTyqvT6P/rjqgSDn5PrXfDDOUv+dk2BwOieHXNybUHmSTlHvTbxQSSYKU4Rs8vtLFvqR0fP8UF9JA6SS4mvkMrw5/aBCBFt8tCSIC5hGcw2O7N5jxABcFLGZOM5pYyRUdHNRiGkSP6rWi2TuI8T64hduSnX9suHqJYVVTSNwrlg5SNHnEw2vdnJHU9sjSwnxqjWV5xm8xYvgdboGh159vnJDME2Gn1DbwqJHcr6cdLss2s7aqY4tbbe4xOw3SBQLWnyNioah1p2MDsnZS2+SEBKgMecxiiFmkYULhJZ1dcGIhC+PPG6Oe1L0vibaec5IAM0re6jWHPrpDgllrJw/Cx3qKi8pVAWd+HWoCSOn3NN1WkTStqcQaTXbarcFIUBkbMK2KihLbArQS/H9+Gh50BbR/YVdVs8Qm4H1ag4ZBwx8zSTZGpLaGqFI3vAfOCRKx4pkDJnjDJnt5MsBa/qz5OLU2z5SFMiCaKKNZoLgiexAQuZgCAg+5gxLGhAoSNu0aqe3fS5vRQm5i0cPKctp6BhEOXO8ijQBuxw5ygznhPsevxrcK7oXpqCE2EXXHABFCvqCXHPh/CF23JeVz4MYZEXgDJoZmu3MBJeedMKH3p6GjRbir2qKPW4P6dtxLQL9OvPpz71qTYPfYXtSrj0aVvNrVSE1dBSrDdiFi7eUu09bN7P8ENnKX7DW4o/RfYxP5j29Qt44idldvpY8DnkZXbyPFaT3fQPcKGHiroFVuzz1BA1bC0auc43VbWhD0EJhKkwoQkh5d+Yq5x0Q3kUDrh17AEW5CImtJZyxA+p3tyUWCGgdtW6l5lArtGlPjmyZ24QsnixEISn7RM+MQ5OR4o3ClQ/c2CSIpb4U60T/iAfmqDlkluIUII0ISD9a/bwXqEIbOl4RLPLlEgVJeCAj9riqSW2YDgceGhO0y6je6b+njALOLbqxA/wcuqCPz3DfFU/LblZFQpqVUKb1TuaJ9RhR2SEIiBpGmg70+Me9zixXxzic5WDw9t2iGpjWQm5C0D8af0tlc6tV02MJmS0X1Y9Y46mtydryCT4PXkmO5Cn1Jmk1hrClVTi0MnkjZoqQ37n4dS5yfDkLD6olFN3slppMKuURanhcrXKeEQKQ89NVbH552NeYRsLo0ekcsFq/EhSeb1RbG32DKo3U+zk7UIylktMrWQ3KuFJJyzFDMl1gRq43Ic8YcfWs9o2TlnMJI7COuU22jJ9B9yqVG/A1v7Hkat5tikIxRO1T1HuCl5FsYGqARcI9yl0VmmAEVfv6rkCW1Hutth9PZXLIpxB5JBF45u2DggEbJf8jwanPngywWzSjOgj3brP4NJMCMS5OJaI8/iY3O9+97NWqxnWrjwYXNbkL1psNAU1T86q3fRLaC1Uexm/CY9NOoa8wKTIYoBQt/dSi1qVxNZsD+Ih5Y5JhOzsuBz/fuobgwmNnpbn1MGOm2D60fjQ87nblTrJEYFj57TVoPKXTXfanPeW27RAPlVujCwPfehD0ykT8ugUIlYeVpWq6VdchEjdZWgZd+JoPlVzJskHSLFPVSeKK383ypl9sJj2AJazODwe/NUbIV98t2YYDbllKG5y5nij2o5PDKHY+7l6l0v9aPSYIJA9PvNhOTgaJeC9QdT/THtsHcPy6X7r+PS+mcpTTC2T87umLCO0KWu1F3dKExeLWaNIGWIY/ve2dawo2DnB+PLkd5TTpo42JCYwHUpODzsB57i10AuOknHR0AmUSlH3hKAjYVnMtG8dZbWvqNGsH1vJjjRccskl1GQhPWMxYMClAmvvXqoO99/whjdkAzbrGGq2dBOfgopvyl5aOn2h3cC8r1+n5acMGwdIgdOaEcE94QegmQSoHLLTxcALDRmPzX31QK1cHVLzrHFUTdSkAdUjVaEtKIycd/I6b0MrmbWRC6jtoZDuLFD0I/jIx31WvbG21VrkRCQgzoJhQqVh+ZeddO2720vgxGVO7ZlgbtyghG6pLL5yufPxaPip4/fzBFLoCfdoW9U1k7NJjMWM4GYOSZlpbS9ipRY8r5Cd0+8Pm+SI0bj97W9fO2No7dmTN8nmf9KSqsplv3nEY955XRwzDwYbPv9GYhfyTif4IDtEtkHusNAfRMg9IMWBiETMeKeBfMT4zfJU4hA7oLumegWVwSXQUJJbEQsYw9phrKkKkg80zN2rE+a536yOH6f4TJqy/CebIGWd8zCKHoQ4sLllMHxxKsWJk1AJ+x0hM/tZz3oWBa1WDZWf1rfL5LaSOWTDKW6QznOg2KlOOtC/fLWJYNDKFs1vflOVczd9CKHAgfpTXfUbXY+MzHXDjdCqvZs6tJaiYu5YdoRAldCgpHWH+FpTTvKQ34MSZcUidBxWkZniFNWjFrFk8PgZMzpdK8lC08HL5BxJgkaVUgwz+et2t7sdIWJw0ZO8iCdCqUySVZ9MAJBuwa8TJxnyWbgdOSTK8d33IaewQlCWLXunqWeFVkYwt1pw1ke0GVZnjwQ7FXCuaPR9emDyNMCCl1bulNdjqlTlGScvToaaH+nb0UV4vY0idpznTHHKxJoq/hRax4E4Mzjx0qr9a6ctpI+9rkY9EiWcvcr02vGoVIurAehuakJYA1U+5E1U9KWXXioCL/EKv6NP1MFREvx0LqQapn5O2xCmD4euOW0gIuVMVyWwCJCy4+usWxvlZDjnUjZluy9ro8B728ZNaBg2ww4dwaq1Ygf0cKY4RZiacK8mNIV8qQ4Mv0dHf8saQ7sWfirJbIP4SArgfgMMUMTUrfhMlSZMKHJ2zFf085lnnom9wr4DenSVDtFRdCsfTgz2APKXgCd7RCv9I24nnEr8QqeyHSOP3NfRtN38hG2g8SXSDn2Zg/sOLq9FgdVM2Ltp7PZKmSlOYYsS23d8y+nnWGFONLICf1gYXlRIYoEQEJlBQ7KxuV7TDf1LbKb4kCnGV2NwDiQXrgM1nGIwQmlPy0911JDy68OOrjf0JIQCWNCKEwNRi+TCeoWr5j85JgplRwVW/USM4psKQ3P8RTKum65u52u+6pVdPifOXHTRRcXrDZe/G/mOUJnIi7xPTJVdNnlLZc0Up5BKTdp7WBcYMIw4vc/rFhsm2M6fKw+KGzq/OCU28/cwYX+bP+3yieqlODh7+umno/mRR5bijmOABK2IKkCKHwPLYMyC5Cz4hbFyOSs/Utp0VVDdXkfZySC4yzhy3bGIF6gfJ4pztG175fbPmcrs+rIcb1ArEWP6vztJShLc5H6Ik1T4dFNDAAAgAElEQVRs00xmilM6d5ILM1BO9n/TxVxh17ObMfA3mS9GXFYY1GMx+dGqHEPlteDvpn06eXoajTxJ8tY/73zfcdti+01eUJ8MwQEBCiRRih3+AFhEKkIrb6DcOgG//AovthRKPJUUqly8AZ+AFCqNv4UzKHT8Pq3YQRr9A0ZzjNnZZgPXGid6GzWxdmLFNquPA6c+EBtkhh+q2ROf+MQM4ZhzMyLelVO7NltOUqsaK6YiHyv0QQq1GjHrHK9Wpd/Zc6JfCDIyvFBtOyu3Z0FOdIuLwsu/yuLhiVFa559/vk1i2kgAakXQtvEQTwobbfthiGTkoqr3rPa2k/GMNd9is1ZP1dt2idX8bWNCg5rJdtmeJ9V3Wb0BZc1UnrImx/Oy5CNuUw6jGzCmdBe6ddxsnBuTEFXiYQqKRp7i5DmHw5yCC+dKC1oeeWEb2++YPBkoMGioKzogBdBOQKpiFuTTgMbS4Sh2kg7pbxLPQ5sHKkpBThGQkWnucra7qEMtrvmYRo18F/vpjCTiDG8gijG3knLAcGTOPV9nT0iEMvpEq0dOz3zmk2ymODX+gBJNRIBzN6+BHvK2S25pK2t9stDAGWAV8HqCY+xxtLgskUpiWnbquANn91hJmJ77UNklVBhCwVZYj831QWa5n4KzlR0edTWGaIeAZF4xyxPoAl8GoVxZiDufD0gZCLqwUDmZSGhEhyV3PDpGxEehVsFxHPSbKU7p3FZiu/944wV4UdP7iGYQCn3eUzii26M8iKbVWz/7lzttStO9HOgpOum0RUyVmz0AcGDQWP2ID/yt8Fb4dTYvagjQ5+DOo52bBePgpg5E1KiXvexlzsE4k5jIpfRK0qWsdkb69OwoijBhysQjyODpuPiv3R175tw/GXlquRerf3cNT+lMFoYo73MOME2b5HdH7rYy05pfMrCjdzie1v+qApsza1oI+B2L680W0XFy7sEK7w523nx3L0+Q/fQ7QpMlyvPDoqVHY9axVCQs40i84k8kxKgI7jyJ1rr5GEH6IwdOPhBxVUEMG1BXb/CZnPwCmJGdZncEUuQ+IjAsdmU8vW9LkdQ6qqr0VResdbw1559mKk+RWovfR25J6d+JaAsL40lPehKNz4JBuNrD+3uRxKPKZsgRvH+h20hJoOMVEX5h2yctpq2/4SO9+gB9wizLF2UNqaRL0Vg+0IqoSA10EA/+rlrJ1huJTLh3ElnEKN4PEIoxMZdWTFvtkbmRYoSXwPETIWUFpOxzc0PSkW3c1+szxalqdwje1lNly1vgiYJghZO37dtujtrIxQHV4kjdvsajWq5JH44Do793yW5YhwB9yiC2G5VOgXVZnhBgBGSatQ+/MEyW83eEDglqRQAmErEohrwfclRAmrPOOosYVWTtYbXa0lsQKnyo/OGvOx9NvFUQvKU6HGu2M8UpKGN2ptM3OgRALRfUFZXrXa40znxsStxiWLxL72Na2uOos2fxY44QwefroL1goJWPRcsqR7xCVLHDQiuD5SNuHA5RvCT+DcVzlZ4IpoUMI4IBKco7Noq6R4zKdVV7HJrWonEFJERhwsi/7AmMywKELSDV2ldDHg7wZdjBK8Pi5AEXjipZ0ia0ANjYjU1rG891XYlnoT9u+vpU6Sk7RWqIr+BUOe83HyNCP8KyE5SIWjFL6W3o4xgQs2wuKHZWqRDkrK7UxhlGgi49aU9lqImKZ5+j4Q6YeBOOy3J/3xAoHPCOKWvv3fRFU5kA5S82ioOyPa0/LVXKKg7oNsY9kpGF5hA7aSO9ddNO23F6I+LDVZ2I5LwbyVeYTYcrUVFocohMjCVBc+a06zj2wagvpJxdpyDajivcpzgXFIGGnI/hiGDqDph4fQo6sWlmGh/dTN10Xpro4snlCmwwd/bZZ1/lKlcZMK5z8MSxVnlX22DVn1Fs064Y0Oodv2J8sYckJk7bwp44SJwbq6h4OSUerx8+7jxI0Vtz7gFRGJFuYRJtk84/bESn7rjnD7S4meLUgN6kr933vvclBNH7RBrBEay1eXeXYs0kmFF3sm38at4nzpmdmUBxxJuzXQFaIch5YDR7kj7FDPL4xz8+HvnNBHt/EhpRPW0qoJYI32G+3HttD7cCB4BTOPW1eEFBYwkyDJY0RtbMHjMkuRTPDslTdEw+w97FxeQePTjLbDRP2nhY01rf4iAm5oGwMPmV6CQ0GG4ugi1NUJgBu45NiDcW3Wo+B0E4juDOHczCl7MAmIHVe0xbG7ubh3pv1bWyu6nA5KUcAE5R31pvVy99QUcwiXkDeiKle0O706/txJzhJE/lLP7a9NMmYNsWVkmetFdR6I5YmII4OHVLnUHTbpRw5rYZTufiwQvCRzQG055z7xZYlb1PbCl6IgoyngrT9vxGuak8/xU2Sk1gUyZJbe9eho0qdpSJDwCnHLkwTTt6nytgIp+Y03e4wx34THUk7vPTMGKrT85r02BnRCxJXEoBahHJa1850ATEVVY/kYutcE0gRrGUIaTZ+9BS3Nkpv3zZCVOCougHfBYs477Ls4EvO/d0jnLEq7B4O+gEBWH3bSF2L1sjRwQHg7TCrHOIXWThnYUt3EFj51bETP2nqt10mYFoZUxCRzGc1JWelmSiz+GGmDFjzEOV8UsOWBvk1NEofVQky5vcAXGMFK8ocXvII7yorH/EM/uscaxeRKYHbDk+MQs63MvxinkBiAMpTu1eARBULZ5KfAK27azEUANGeaUaF2ctxUuh8WmLGpIHdxBNuP+8IuvNRzvuX+2OlAeAU3bXVYErbWtuvo5Xp2nN56ijqf1/KqdkLSFF7MwCaCUkQqaqopZ5ac/ZztW/P4EUUywSCqyQnqxtBCJEhjj61vhyPrL+VwV+kYCY7PATXBAmjLxJksJbwTgObshEJjbnN6HVVv2/uZ6aaahSfwl9thD1V6iTxgN8aPr33oCU5L54CA94d6avTOhdNm1WXJbTZfgm/d6auTBs9rFspDwDW9MMeJio+0rn40PlHJDDsFfwxCFiyReazzgwLJ9ZvUUzEnvXetaf9hJwwxobX1x0L7cDod/7Vxg0cGIgYVEMqz76EEoQQQJX4lL1z7BnSnSYzJsOB2A3YWB75rObZIuf5x7QlksUUsCJ1lrZ5keJ6+qIjO9TVc6Gz7GQRon+gFM5STNV5h35WIFh4kQaIE8dwRFW0ijzJSSKZQDKOLKXHoBcImpRoDaKAwHa9Axf3MQdFpnA0QVeC0Q2iiQ+i2AlvCchq3+EjI4RKT/ZKXmZN90jHFHE61P9diZ096nt8aU5AL3PDGidBOxi+AJWbZQHM9CETtu0LWZy/nsyr92Wvr0ZYCVbddYbhUIggebWvb2it5ezwM1IqHJUsxSEqDrjjDP4Rg07Uewth2mQWYy8eCt0Fd7KvkKY8nG2+dRTT8UZIeAnOQ+I6zE6rafTmQLgFyn4OMZrezNhZM4zxSnadbnHNeRrrZ0JY+QUqwOuZqSz6SM7ovV19m8TEXvS+uu0D2Hu2972Nnle4xrXsAgP+uBxesbapr2Sp5odRZjivzoMpEputEjBPH2IM4RuJ43wAInGI/oYFklIH+ohSVyaMcIpsdoJATOh2RDRsUe2opnn8qTZAzPFKSBFnk91CUq1zcpcdIqVv4KNjoQ/eaBLep9gMkqX/26O+GkR+iNrDINTLuxqDtihPDGC4j0gy1vDolJv7TSuIJzEoOn0sm4xE8hWJCxiKdiyx2DuVQBOoa4EPkZlrjLIdPdqlL5aGjI+QkAkLNrrIkx1d+D4X2eKUx0Ns7nxrOGxbfaYdqbg5O5O9D7Bc9VBWdxk6BSBrY5ajfzJdk0WcMieDiui7rDlNLIOE76OlmK2Z+NbdVmsBKCEWj0JTqXmAof5oJAo7Fzq4CAPD5PEfmaSEKzo8rgtgLWpG7BMYlMuXQSk5CMSHkfcCQmHCYfgyLI6PJyyYcKpmOTY+FA5rezVmHGKY7QcAAf797Zdn7kjaBQruxLZv6oXTI1pxb7eJYG+6U1vesYzniHQcK0OlHSbCn8LJj8+CuOvFGq2kWgjYgEqXRBRUUCzAXAmgFzMqZRQYfYAlltquGX2iVwOUjnHV8ONm2+2sQc84AHOLYxRJ5uVX56s6oEDwynaBA8aMg7sIOebkX2m2qrGr3pO7+ORsOrX8c9Nfdu+qa8VRCc+U6QPmzaESii41iLIJmg7AlcJFS8fsp6/e9QT1Sre83xxVYN8BB14jeO2a60Qy8WZGHINdYnD0VYPoJFxaGRO3rjogULtwhs7AdscBtCHHxaLKld4xBbQbO3t8pAhxSU35V+ymDGynSwxhbv7bdpf54hTPG5sgzmvp7U2ZxQpVLJ3oTzYnq1wHKqQ4Qw6MGXaHpEbva/gFNUPUzaVIhZ9J1qJBYD/YrRiFKP0KZe5nY91qyrE+M0LCecCp7Dst7vd7Xy/6KKLrDq1JVeGo5m8KzoyBLUWcLkABk5Z84wAVHIOFnkRGAFf5jDNpJTRlfTk5PLvqkqqEulJl8IsHahigmowCOpwvBVfTX5G2CuyldlVvQKHBcBIxcXc3It9Qz9zobj1rW/Ne2ujW0VWVW953r8H5oVTdmbiOjbUHLL7pRnmFuXLZEISoR6iHzFp0/i2IUylUPBn1ZnQE1LpJCY7OdYGY+KoWi7+olMoEej4C4DiD1kbP5DNXTsp6aSAG1p5nTEB2GXZg+xdni97znOeQ2KyzjWq1NZwMM4S8WiyZCuyDA0LEPBuQ5l3HH7qP18HpFQuCc5oAiN0ki0BYBFgbT8+6my+MQgGQ3HwOcEXUVfNtVGh5oPLEx14MA8n50MHNOrEvbIbB9k+pZBc7F323laNgABF5I6sIQ03PzOpNVv5AAL7fOuvPR/SsCgFZoP9H9XS862OZJAIyLoupWOGcVW1wmuZMI3VLnGg1JAlq7FrKFP8JztKn/YnFvpyEM8ChkQqAIlK08CoiHFGwcYzbdEjc8PcO2ZIEwTxYLTY6Uw5raCN1k7emHI4NW2EdC996UsP5YTA4o/escrG/sSATa2zockIHhHX7V2+46QoSmw34UFs1IQLG11N4yOok8UIX+hSLLtlw/kTJzK4Wiaod4ktcRcYnI8XCWV8HcU/8Je7jVVNExEd3E/EQ4ybmvvOb5sAUgsPQk/RfL+yA8bqRECggFD0iJnuwtMtFOFW8/+YOq96V99qCAySgIiRe/SMF8mO19Lzn/98z20hlHSy4R69wCB+qHSCEnEpzSF7kvh8eKvjmCQQYoy4etmFEn/fbHIC+5C5tJS/SKtK3nxreTJ5D8xF77PRwRcSuBaaRvgX3ps5mEo+IqU/5jGPQTH4lXJEnqraWcgpfqIWWSosO1mxaBHcxBicmrCvrRn4C6RADPqW+kBNIyEqgpxlrz7nnHNs8kzpmB34VfXHwZKgn7WFhJgq6R/GMls9kxO5hmC1bYtktSscA7C8lagC9hViSBpin1AZ/JSRIo1qiwrvMSQT3EHn63adqYdZ6PS5bgzzSICCX3Y7eyF5WQys+BWrMEf5nAA3oyCvUdM0uGwLbF7eNeEkWbLq6IG54BShwJxAzYb7tEtXLW6kD4yVuQKzCCA4Ebs6Fpkdx2kJhIIXazHtpGFHy1aZ9rOC294toQ7XTRBQgzYlJuZ66cSEFvEQ+oROQgxZtwSfbLwwlB3A5C6vqJ4bff0rPdf5apx/VRJQSVVlSHBzyZ3ENZwSIo6+I5S4HLC5VNEguL9QzILcpdhiV8hZfFEKqnECiCoqw8RmHBHPFHMASihGqBkLnI6RNUa6SP/nkufSPyBPJ/SJSgjEmxSeyaADSall9zIclFM8lKrqVUNjG4BNAEuVTC32PrUl2xpuXWooVYbExGc4J5xVG+zyb3AaIXwi6n3BqQ4o2epPc8Epczf35dmcQ75Wm20+ObFl5pG5rGTfTXqiE8tg2OhmHwX4oFuRNeiJZqR/O0LzyDZrXprAkxmM+jG5SxHWmEzglzRRBCwPOKIJJjc0VJCKeVJekR6e+pcuSW+tMcpKtFCzxiSrwagiKCkOoCQuFbOUICfJGWSTQPWDxRahhqRDIivctrMprGzTWhs4hQRlmrKS5kelglPQnGU2h2Z0lDr41Yv++rfaOdqiQ57ylKfUwKs5punA9Dm9XidHWbMlEEv1QKgA8A2b/Fpim+h/UrZPDlEaI9Cvz9Hq/hKUYkh1RSDHrmKO9JOP63BOP/1008yehyskgrVWbHm41R6YC05lnWsqKLGY/a01GzUbt0AAYams7RRT0zYbd9C1iTsSqBgBJypnR7KpfrLkWmEU4GYZ65ywLYk9cOGFF4IAuqQFZr3xXQD3BQXIEbQwuthU1ZOPGib/GtqmCBCJNfNdK3wviLm2An2EqWom5DVFtPZVdqPWElVev/kA94Q6gEr+lY/NgFzc9JkgIcpKk2GZph0ETqlqwejWfji4h3PBKYuNNN5xXwMxKrFBpu1i9Ar5n6WftA8CiGwAjjrjr/2z0KjMQPDRAiDZcVbw14vSYMRwGbZuwk5TspOPOk8ScSGKCWigenDegVl0XvyL6cg/gyBAGYRQiqtOUPIF+WXaHiu5RUKsZW7BF7FIx6KEJKBw6av4XtC8dEgqCWtgKBor0LZRPatqde1FZfXJSlUhVEkZia/5YpU7b4XF5it7f7IKwfdescEVmAtO2cfiVG3qmL41jkbzLMsoPrRC7oXmolOm4T55xMSpqtoLtABaz9qLZ0CPxWzS+2JJZ4r7bqTpmFgMeVpa7oJHwfoetcXfqBi2WV/8bV0bGpUZo56gBF3CYYeFDiJXD4WhP5A+OQrneYdRSSloXagKT932rNUwC4dC70s1spAohiQsteVaUXUXGDxL8qJWwO4iIukTCnj1lA+EIuqqnvTa6EJ2dUun+RspLH2b75oT2Wej9c/fnf4V+VqVguDVpplIHopiXNxNWxtOg2aTsccQluPLUoWt8sp4a29r6Vt9aB8ND7DVUnaauRkzk0+8fjWeXOM+qFy0qW4W8HnnnRfnYL9an2F/qtVmr6HyVNeMnRwujGkaTMlIyIrBcUxWlkEM9mkdn+bSOqAs/EgKsvY4grYWpIHNaWFB8gMq6aWJ/JKUOeOm6NYMN3rIqxNrjqyp1QGlLRxNsqJiq0wSGEGE9EZFTJ64DF+1zppAIOUkjMhLiSWGqmR3u9vdyHq1miTCqs2DDXrySm4pQ3thnBD5641cBVuq4abZfmCXm8nHRH/Ywx5WZhVgsoB9qmuPS7GJ1VFh69/NH95ymVpzznW82PwJGnLUUh+TuwoHzZR9nlg2a61FIlKSVlblJn5I6RwKIJaqhp41nErNy4Jcle2q57YHJP0zn/nMLNQaQnX/y5ECNbYq5908NxOKwQHKcDfD67fWyuCWA5LgmMRKMEwlyxZCzmXv203Nx5eCEMgALTg1vjNbckBV8L1utU95yHRlqu3MJxiHEgFB0ZwJWqq7ySM4xQHa7KEz1jgjKhsTAUzEfHVkSUuCHeQXB1ZaIVhgSVyVJffgBz+YaMD0pjjeDEirjmyrP4Vm5s0s7HfrSWxVRSRTtPH3EsQVtmCWdrFaAlBOAD1L3GoyjNiqvqqVS0WtauI1FKZDiQyz1apOmznjaXiJBaem7dj/PzeL6u53vzup1RoAEAQHf+nb9saRR2E2rXHBKbOWLLPp69X0+BcOPjlroi1ERVOfO0I+mC8xbS2qMUV4FymDG+KdSBIs6gw0wRn1zBkJGGKrVVwCQ/zggVRMfsjvpz3taVy9fDTKX85NRMJWmaVnBfaVjPDlLLcmNI2YxgjNh6XaV90GlOuIT3jJo8GpufDoZWEQBxxzo7XRq3NJlDXgXsnQ2K3rZ0sPLcume8SwspBEmkOhkCGpigM0Xx7Sk9xiOpzk/D2wO/vss+OLVE7/o5w7/FprzYk/5Ko2AiksGzfudAs2kNTmQ9CzhczE9X9V5bufE6YSfZT8xb3DeCU9kHIjZG5C7c5hVr8eH48+O5zKeCNo9z45WOuKsYwEYe5WD+tsNC9t19gNr/AecKwMKvmUo7wbZdWRGMr4SAA1eEtksa06192aj1rxtygHdKppOJSjxgtIVX8CWwcNUqUtppwP946C7GspxdZuXB5O3gMzxanJ2zkgw7h0UdCYqwEN4W7YdZLEDW4EKBsCmtXOr2JAZfq8EhWMSwf+m+rHj1Fx1JkQVd050ExD4XuliVPg1dljJ0iOzdrd1ikdmm9b8uXZLnpgwamuXrYsudg4/IG35mUzDKfQRhGmiGNMAQSWriJH/IZE4yjrlA+fWMIgbkJENw/XgguQQja5Topal3gV1Vrwlrj//e/PEFY9dTiimsurSw9s3AMLTvXqMjJR0928z5sggDdmFj+5hutpa3StPlmtTYOeZzRkMCUQsULQWfpEdCNGYd8ZUhMiBpiqIcUnTo9AihjFn3MVSGF5CZusmQxMSLEEq3HszhNMGbaxGidzbROWBEsPtPbAnnHKNk4bwmIW6ofrihXC4SXngVsrvbOH1l68w1OrAeVCN5ESeNJbtE6Q1SLeDciw+xVQKFBJ4nZ1p/Qr8MXlw9BHPvKRuQqUe4TYxxQfSEeKBLJCCPC57QgiTp+99NJLBcYiwZEWzz33XDnzVuUaCu94RTjruz1oXtvGjgScPKjGrLrixDq+w0vOKHvi/DkJ1ClrbHTH68tPu+yBfeIUCzoTFSxgO3e8jkWPU4JJb1UjsIkDG93ovY1eA1KpA92tNY7a2kK9yNVIMoKJQHdr0+8mASEIgZV4BkaBxIcLdwpX/BwSH5xyNkXAJusWvdXqSJV6wjhetSWSPRlKG0lezgzkdAFzvmydkd5Nu/qXAoyc+2HjoymTAdHn4Jgzx9Of/nSWWXKoUWPx6J/hknK7PTDAO2OSV5y9KkF4MdZOpdvKBJDLJsbe97jHPW6SMx9jamuzTdwo0hDfCB7zm+aW6NpQwFp1jm/T17eUnvQkMl8Rc6hm5CYrcyMfLiHeBY3StEQWN00hlBMFPOA1Nnoi3wWC1ZZaMThbeMpvs3oMiKGA7xiYLp4oxMDB+e/9xeOLOzz9ZS19YNVUNqFLsBTKke92YERJTtLjre3VHeET+pQyPg1tNIQLyUJ4gAHH+m3aqkEuY+YTu3Z8lcbnwBrovKRtgIQIf/H6vO0Nh1OHG12oh5YStJPOXm4nQ4rJzTkn+41z175IM0m4iPGtrubgvBFJiqhbuAVdYYj5cIhdldMC2WCmLXfJbXAP7EfvExGcWzOhCQNiW1Z72p+9l9KBwaWJQC7zmzPkLu9QaXai3ZVcYPUim83j/tGUkhWxBSL7bj3s/t6qZnMIdMTYCy64gI+FX6GngBCO1xKLBlz8ZWi4lRo4XZSQO3Rb2jrpTLbw3QjigFpPQTXrtssnUMlQsuSK2xP9NDc4MI9qgpNJRq0ZhmGXNVzKqvXAfnCKZYqycMc73tG5KhUylf1rrmCpsCFujoq2NYfRIlI50YavGVAZZAebALDTrv1yNFamtQeh7AEcrIgMgInfJlgZ5myhN6iNtCf7inz8S2F3SrzgnT2G+InXT4hkCUCDPYlOhHwc7DE7YBSarzgm7XyPmtgv86sBwqarvONZzAvAa8GpZr/t8cl+cAobQikws6PZ2dhxVVE6fKEizQenaEZmsBEaIE/Zmb0IhTdVqaadEM73UXPY7/DEFqHM+RngYjBu442qIkA5/yxPdA8fq9QcSe/0CV3e+mcEZP7LqcPEHYRcTJ/6pOPo77Q9UMvNSQAfAapyaw54Us/4T5iEpOBhPihbrfOwzO0ix9GW/eAUCcWHPJXeB1jsSvlOg2CH8t3yLnSJrRinblHFS2DYmI18y9pLKLue+TBcorQIU2AXKdvzrWmTEaPcqiAIn7MgxCgSBOkJmnCPmIos42rvCKFxoUblDKaFgbdyxxeV0AleNv4Xv/jFgLIagZNBTWiHfeGUTibrETBDOAJN534S+0FsHD4WlneCW0ip0zInqbfAvepjYQPAvnvOmaOIjdOO4MjcSIUdgU9HZr7L1/eDU2lhxA2z2USx63poYbuwwN5ri7O8EVgoT4e/eSro7vgcIlN26djCLShT0/Jrjfe4arQe8pCH+EnrKLl7WZDgSddZSJZZxChOA24l4BlUi8eyqgl9niekKkXSoMjWjsKjyiCy3grUd8opp7AhSmP4JCCZYtaZSkipoav7FLGNNFC7OJpg0+IgJmYhuwdfCs4ocQRTNDOobtQcPqvOP+b2WU3gvu88OZcOs9RYJ4z6Nqq65KkH9olTuWiP3EQNURUTmilKNGGIYONyfx9vQzxCHA4xGp6TyR00M/s3skyNGWlrLyY/INUaEbw1c9IEQcNPWsefuzXN9h5aRUBK0JXCs4B4t65io3IN1IRF5xiQoQGIlrQdhRrIO8kNPa5E1nVQUh+ShVkVOaCyM1I/af3jVc6pWgF9VMaOKJ61HoPprmUrNww5hMSjSlmgluQYnNJekzM3JJkYs41NvF8VZKoB+kA+e/T1SDOoDJYQlxbG7GxrJjHVT8XwvsEj12ra02gKXqG2dMeTm7ZFaKki91FUe2bODzs3l9CGduwFZqW51Z2DdSpAK8EEMfMRH3pWfqNkBBPXnRqXnJJhtIWG/B4ESNF1stJ8KjDgtshZSDLE/t1xt9QaxRZZAnJQge0lnBIiZt7znvckJbFE5xX7jUHUQPQ/Z4U81DRqY2QoDMbFF1+8UadtO3Hxn2JlNh+2XdwO8t+nPEWDiwsCNYHQhP1Bq9OSnHrN1U+UiLgC2NxIWJdcconpYn6YZDvzV7Da47Jo4hINMK8d/tlBXjoC3SeqFlvYzjg1Ain/fkKNSkIlFVBze4CjyBSZwFZqOOFfSrFw4+DJ8JF2rXZkHDHKBpMSNf//a+/eWW0ptjYAn/NDTARDf4KBiQZGIoJgoKAGKnhXzLyCbDDxBgYaqKiRxoIIKigiYmCs4GQQuc8AABcGSURBVE85z8f7UTQ9u2v3nGteutceK9jM3V1dPeqt6lHjXvyA0PNDMAqTkCnGRs8Gy+RgCZhs5wQlc8rMhDEx5eBEPDyGQ8JqaikuxpxnQhmtzGwynwzNmiQeYsek7H0P9Zok6RQX7SI55ucUnZ+zz0vyKdkVTBiYjpn2x+BKVnrooYfwr5FSYE1b94kVtsIutcSJAEtMVKpTW7g2GROJvZ5nOukgzs70OcETU8A+IElMEPDh9+mMQXr2VdPpfOc+CZPodS2qO2NPFAKvH/s67QnfHJ64cR58Rm/BaMhThDsKsmgJDJ2RlPRBjWVMZFVs7f2OwxflPvt23aCySttuepGB9F9qxRL9+m02cfeSfMqGxlQh7tynReTmYWFqtdBpECPsSAe+wAQTYlLDZbRClNuZoIJxzmBHAwuHGr2YJSWLklNCiXT6FzBHLOMUcMWIHjN5p/+ffvopZfwId+f0hMyRhB8RjkjuGJAVFf/yGeCao6eudxC4JJ+yp9nQuKgtFGt995O2oO1vFjcJhW9luJt1hnTZW0wwLVOERHNSYuyW9A6OBayKLBOfGtOY3GBZxJeNpRwNXAS8dOW42EguNy2JdVLcWud4k7+F7yInxlA1am+JXjxhfuEQttvsknwqqJGP5vQ4250vkFE2uTVpbxuca3+iaeCQ5tEXVsME42PrnxPF7ZWqtcw0FNgTkaRbGijzLQ6OBUTHRJgjMLx3pLmcjoblPXOQ+Qud5OWVS8ST40LzJOs3nF0NYLKHungwApfnUx3SubcpC5iUTFcCuYgVdh+78ZlLrzFecOfjU+w+sY7P0cwbwDSblAtuoxOZrr0dMuI2eCFCCTWKpY/J/Og11+dGevB1tp4zbzMHk5oHTXriUUisHAVt7/Ffob/a2EqXB6xckZhb9vFV8ykaX+q30fgIKfFc8L8MY4LPOXMUur///rvzRnwqyinRRoxyp+XBt4BAteSCaMUkUsZz5XWBpUOpoEDNpwsfnFF4MGhXeZDtTw0cPdgjJWzaCbAqq1FohXgr1ymzTkjiTDh1EcQDRmGLXU+c2gH0t0dWzadE+lL+xd2IB2HAIp4wD1sNl9qQeXaUoJqDm9wncgKfIvrduHHjiDHfeSMbubfzUgmGcgUgONSTTz4pKDGRE3OEreS61KiWHbUSkpaQwexA3YscbSk6ehafEu5HvmYfjMYn5lNZekL32cJlllCuTaLAFjZec7NV8yl+KwUV5HmQq32KMmlkup//m8QRmgHCemWunlTopIYljkZkDXnqiJ4jb8ShvvzyS8H6wg7Rw/orBIm9nJCy5uV1DWgDu3AKKTXGQmhSesiP22+/XWINj2oq5NhQ6d1rY1LoJOslAnHrE7FqPgVcOsLF1QRqpthOm6r9U4YE1W831NMttV+imRJzjmgnts7Ebcogk1QEED1LeeV4ovphVVtff+un35az6zmxGFJ0Yf30Xw8KL1PPc1vYEV4wprDLuRODhVnG00fUEtO83NvdgQKHEictvvz+++/HpBKmRMYUosFEVUyqA13dumYIrF2e2grc9IJ4f8R/y7+fVAyXj4UpSl0BFhBVWVij6H2epXQ8+OCD7NCTUTzLO6+WhcDmECg+tWjKaFudGBnmM5Uh2dGJUXKVrx42ocKc5GdepKTp8BuQ5lhAXn311UXkVqNC4HohUHxq0XwKUBLtOdeUr4eC5q6YCclAV3FHEqMS2kqYEofFDsJkq/7cu+++myyzORrqeiFwjREoPrVocjkZ8QtNlXYSRSW0ulmgiDzc0hF85KxodpgRXTE56fiKNwltlfOISYls0CFFT37sFRXJRYOsRoXAWhEoPrVoZpo8hZuIDCD1sBblSe4/x3nhU8QoqdQHhE3gengfRY81SuWTOA25kwRhvPTSS3LHWNAXUVmNCoFrikDxqUUTK6hXvnSaiuRUiZQ8haE4vIDsk/RDxwiLoNk3bArL4yik5YkRTf11YpTDaRzPqybMZELZIoqr0a2HAPeLJaScljWZczDFT9lEOY5te4K89l2c64Gw+NQhc6GgKAVNWJPpFzEgqIrxyEF4+56Ch+XhUIIMLCaKHolMto1oHeoew/lRghsOGV49s00EeJztdoKBsacU7eDh+eSTT2gDan45nXCdh00sAbv41BKU/q+NUiSqu0V0ovqpnKmiq6J9+It9zFIgTC3nLB6hMEbXE9OsE12pyiAPBp+6iiV+6Xiq3bVDgAzFxNmOGTc+eYjJSHWQIkNn8alrN+c7A6L3iY3CpyTH4FNJA27pfrYvR07ImpbCdtPTZRi5uAhVkiRGJdWGR08NeKmLKvaWyXwH+7qwCAGbJX402VSOxKYTkkuempzWiYuRp9wQki4KIYfltHY2LmdPOG1FzleHT4nYJD1JGcOn2BE8jv3JW1Tt4J577rlUHYiJ0dalDSIgcE8utACanEs4HAHjVPGpDU7p/iSzQUYd65QVdSLOXJCnBGbGAlatzz//nFOPBYGSyAiFQ8m/F81w9PoK+w+xntg2AkKROXb8jfgUIV1u/BpqPR+Mb8lTS6FjKc9BfnMPsKkzpU8K3jlG6b333mM7UBJED/a9nGcnTa/EqDlI6/q+CNgmd505Tu5S+auTULHvW87fvvjUUsyFCDB1z7XGpNQpd/LgruuXjVxtA44YBRX8JkZhUs7glK7c6XDuRXW9EOggQL+zCFOhrDUTMdPJpuj0tp5bxaeOMBcEIuehy7/bPYrCOQtOSxViHnuWKFCnfoqNEr25krMMjjD+6mI1CLCNqqjB6Dk8olk6V8dmuhrae4QUn+qhs/Cec+cdrzSyU/IA2tYIWcxS9D5ePDYCR+xZNLuS+cIXVbNCoI8AcV6GKQFKbkNakvQJU4flcvXfdc67xaf2QFv8lFlPyfb2mOQ7RTVbtHquY1LMT6xRsWgSuBxurhQk93CFHeyBeDXdHwEbIf9M41PC8S5+quv+gxg/UXxqjEjn/3L6nHYz5FPMk859sYMNuY8jPz/44AO5CxL37G9OLVfznxl+047hDix1a1UI8EoPfccW7TWwMGyVTzl+SgiSRAGxkXIC+DLoViInf/jhB8EBKWJ99NXDs8vp27rlW3nhhRfuvffexqSwMHX+nd8l7EAJfS3feecd5K2wcvbRwakO14MAB58KtPK6LDxVFbdunALsJvmUIr+OMJAQ4NxK+SuiupVnItfgU0QYRmvc5O677z76ulG3YFi6QJ6wTJdEFQgxd1y7KubCDnBMryZ7c/OpebBpf/DRMawOz4AAKT4GKQ5lwtR1qLfhU9/W3y+//MLzOprsHLSbi/gCGefog5J0/t133+m5vdpZxHmLjUs0+TAp76mnntL+6DRUh4VAHwGG0c8++6wdhsq/rLg+5WPhanQcCTWFjYLnmjFe/qnXqaltPdMfLX6xNX0CTnT3Pyfq93TdUqNwChp4c2FgEF734osvMgAlfMmplkckQLKLchmEo1FtKXqfuURPq0WFEpHlws1Fnx+RgOrqlkXAQiKe+8tJfB0ctLRfPvbYY5Py2sMPP/zzzz/L7ur0gJcpnz0sG2t5f/HFFzxCrU8nrSq11unkRLe2x6ekfbMTUfT4zgLfM888Ax0aH5RzxsER+ZT18eeff0rB8y7yMz4oUBOX9O9QnGaiImA7BlX6Hr52otmqbm81BGSSOhfSObsMCx0uY5XKLQ2Tsn9bjcKSfSbEohZ4jAFxQM/xO6xQGI02WeT5siRLMGVI7WoWWE6h33///fyzsD37lPMdX375ZRbrnMJiGsKbqHtE3H///fe3336b3FIOuyhejn7HBOZF5CYlE2idXL8KaHzzzTdqmQsx17MzZjTbPdfvsJfWU4VAEFA9SrqVlFI5DNQuETBYjz+r3WbZ2IfqHZbfp59+isukoD77LAup9ekUNXqfVaoiI2OugPXJQvu2eTqdF6n9Ivcr56oywGNMNAaiFg9Vau9dZGq2x6dMA96PVSXilkfDgcmww+NVWREBYKpiurZ12IK43swBHa1pbRicK1RxorKWmfVJW6MGtimir7vEt9dee82x6W2esEVksJd5Nf5FnvJjsh/XUeJdfuB32eKQZyDaW23oycngk4sAhcNudeJBTxlIektXYdwEvY7l3npNM49riSq6aujRLTLSJzI69LiLJI09q72WekCD9+a/uvLbdWR7i4t+pOc0CIX+zbhyUUvfwxABd9Mmm8EkOHMX8ywiNUCezv12Ec1InQRcM3dhi/5YGwNXIEKkP7gZ1xCc2B/0OUfJAdf1iYYsDD/0gHH4EycsUu++++6z7Hm6BXDCxx8+ZSvVLAkPbCBx72BV1u3zzz9P6UP8xx9/jOngPsPlFPK8S0vL2K7PFxQ+deedd+JTusIrc2rkAWM5yiPb41OGTbdiMIK736IQbBF+qAIsQ4WcZTdQp9wVNkU7zNdff43XPPvss2+88YbF6roZVeKO2KUBrsdnp/1kNjlh+6uvvvIIy5fdbMikXDSjzOfKs6ghZbeRpUzfbFtcpscasu6xA0YruTJ0e+ssHNNFhOlZGB7LQgpa5anRv/bGYbcetE8S7gSR2v305vO2tlLDj6zXCYOAj2aWqcdjShMRlg3WN6kTigYAfbEdepCHJLMgRcNuYfh6gL8BCr53xUdr0UMP2ejJiWE65H7SOLB7HcQyI275I6ja+YdjxyBSfXAUWzuJ0uiing0QsK57LxXGTGGvInXBxVm8O0DN3FWsFRfzAwh//fWXURimW5AxkNtuu80AhzUzzCBWMuKwSyjstMEa4GOOfv3119TLb4293ar2X4oFIi0nuKGKgO+iqE6JWcPMdsQzjMAc6yFSQdiM74bygUsVWblfnOlc57qClZWZrmRQeCRf3JBsoybWjbie2SccZEs4WuFsEG/uD9bNOKW4OPgIR2EoVrZKdZLpDAribcJMnkXmou/EfMDaLdOgvSWo3Ep20REUvlv1pDS2cQmM2gWKrt58K5PLbrJ8wrCl1SCKooq6TKJXF/dF4NFHH91dpa7E+6Q3y5j6NtnGRfvfc889l5eSpHxcLvo0fEosG65jZNRDfFwVNvu9w7odtkS6TIc4lL3Tnk3zePvtt32S+ejmXrf8+iblqaYvAM62AwvCkU0DC7el2w1ShwBzASsrEgEEI8ge8uOPPxIEPIi/3HXXXYCGuCQDMeUHHBUzXEaoIq6bQui365RBMlRHbbEjdbZiUp7tNB2mq30X7inaD6nSP16PwqZhwTlKEHnE/pG7xhhdCUp+HFFLMmteHRuzd/mzmaPKXKAzhKEk4gAyoqL69rRBiYWBJNd3hYUGnXVF3GhjnIOU8Eh8MGSNzbjO/TBreRfCiGZt34IAmrVBpEdQuyt6eNDiGeqYc68+1nVyYsoWw4QkG2kA81LCn32DVKXIhxwMzIh2IlDRp0cCoE7abtEAeZqpAu3JurcBK8ou6/7q1Ro2yacgyN5kak32E0884ewDxef8F5OiikcCghqUwUThwvItBcuCDGUz8dtd2wWrJE8KPoVz5TMbzbc+LS8XrZXJBsTpdmSxVGTz4b/DFc9X4qCHUfHPhauKhM/PSN3INiVk9I8//vBd7S7ohR3etJmvy18+3U5j+hR/RXiNb5i9w++UYLZe6SCwitgPHyqhu9Z6YPfd+pFPt/OK5bfoPl4dZRMlvo0USvWlodNc+PZClan3gRkd8uJcRwm9yVpyvWMktgzsfLqS/9AhLOkKBHaNaVh4nx9027wLDqRvBabTAwTQbBNCpEdQu5ud7sFvv/2W6rrLqpBEGzAW48X76LBMGcalQ0SOijVScluBbLdw6s4ocgv3B6yeTRz7LFeg4VvMjGJmkGoMMZOLMCJCW/BUS9W39aANn5LUsY8++sgXJBv/pm/sN9gkn/IlPPDAAzDCgHAZUGJJuBUz0yh+xIYWw5N5spux5mAZWZG+dpMddOh3Fo0pH2na4HZEldJRVox32T2GKZ2mn884dgHr7/XXX/fv7iJAan8O5u4yjjDuhFGachIfOi33K8p9c69z3X7oz9ee7bHTsm6dBwF8hyk2e6E32qEtWgYppivuI4vBb6Y3Cpot2RKllFEgYiwPhRatIB5ryX/xRJby2AQn6XcrPA4H1xXbroWnQ2zX96UuSPLtOR9feeUVb8SwfIBNOk7WPblSYxkjtBmfWw6SmHzd8oub5FOGp84c0Hkx7P++2zvuuINZKure5ODtV/7cIp5gWH6Y47CAXDQrpnxkBdchrDk7cDFS7vvvv09oss/Yx0yPcC2ykjVkJxQLZ/J2mdQkMQsvsoC2luyjfsvbWvjsYc3Im0MT7GGd1FNHRMC8ywbDPognpoYzxzLmvRmVlnWXOwifInxZrsQri4eqa0tmWqI0RJ6ifGBqbXvepdOCt9fKu7Cqvff777/3fXk7b5WQdN7D9ogyIXglHjq0crDQI0P/JK98br6IDlvcJWDuylb5FK5PMfY3N7DRdVwpcjVR1nyTGmI4b81G/23XPYUDcsqS2oSoiEDh6iKjMSLSFvVDRsOkTBvhayEx1awQWIiAHFKyDGbBTGEp0hsmuYxb4p8JTbZb/9J8MRH7N3HGFhuTBRuC/PzOXo4kjwh6+OeffxJLhdPpB3sSgmMbbvt6iLdrUjbR1sZiC//www/JYgwgND7X8/jCwXaabZVPdYY0eQtviroEQXoN/sLCQsGOao3XEKYmpSHzSpdkQWApYHEQSeCvvcLk4WKPPPLIqP7UJA11sRDYFwE74tNPP73kKUvxxo0banVQ1og5lnd7yiYtYobp9qaFqOgTeM2bb75JNCOCebugn5iDd2nQm/ZDPoWH0nJs+Vx+DlViSOHUwmp3n933ynXmU3iQvSg2bHE9ND6GrQaQW4TkBKek0P3kToV5MRLRxrk52EFp4Do0heaAhExj56/1e1/cq30hcFwE2CIIPnZcMpdML2JU618hWZl67i7xwGA99vKDPXSYlM+ENR2jZHR//PHHD+5qiM915lOMfNIO6GsGTEsXqo67U+zJPkCktZk23Mrd/hSaOYG5nInEaZo/JsWlkj3K7hE9/LhrrnorBA5DAFOQcsxIRGNoPVC+4k06rM+5p9iwRvElXFs+tLfeeksQA0suPUOoIwZKpLqqZ2Z5qNW2WtLRCMBDjZo3kN0duM5ciJWKeIVV+XcuznNbQy5qC4GzISAEgcErphJaXt7rnPAk2/ruhNFwdhHueKJokVck7NrKU4QgOrmoM1IV5Q4/Iv0Sf2wsTtljdQI0qYqjkBOXPDXy9M3tIXW9ECgEWD/YwiQzJbBL9Dk9g6GWISVVAGh/TOws+oLXeBh347/2xfDa8inqGGctxkRH4+/AhpjSiaAAcp0aD0F/NgRmwnLG77tuqv2tjADhKP5x+z3jrCRE8RP4FKO7Kwwj9MHEfAlKYNhtWW4Hg/Zfrzz44XqwECgEbkEEMClqClM91xNNBUtiF2P5ZWyRdjPM3NCAW7B/kPgSAItPLUGp2hQChcAlEfj/xJFLklDvLgQKgUKgi0DxqS48dbMQKARWgEDxqRVMQpFQCBQCXQSKT3XhqZuFQCGwAgSKT61gEoqEQqAQ6CJQfKoLT90sBAqBFSBQfGoFk1AkFAKFQBeB4lNdeOpmIVAIrACB4lMrmIQioRAoBLoIFJ/qwlM3C4FCYAUIFJ9awSQUCYVAIdBFoPhUF566WQgUAitAoPjUCiahSCgECoEuAsWnuvDUzUKgEFgBAsWnVjAJRUIhUAh0ESg+1YWnbhYChcAKECg+tYJJKBIKgUKgi0DxqS48dbMQKARWgEDxqRVMQpFQCBQCXQSKT3XhqZuFQCGwAgSKT61gEoqEQqAQ6CJQfKoLT90sBAqBFSBQfGoFk1AkFAKFQBeB/wFx/6I6fADiswAAAABJRU5ErkJggg==;align=left;fontSize=14;fontStyle=2" parent="1" vertex="1">
          <mxGeometry x="30" y="585" width="397" height="326" as="geometry" />
        </mxCell>
        <mxCell id="Ult3MEDuETgYb_QxGLZX-130" style="rounded=0;orthogonalLoop=1;jettySize=auto;html=1;entryX=0;entryY=1;entryDx=0;entryDy=0;endSize=10;strokeWidth=2;endArrow=classicThin;endFill=1;dashed=1;dashPattern=1 2;fillColor=#f8cecc;strokeColor=#b85450;" parent="1" source="Ult3MEDuETgYb_QxGLZX-132" target="Ult3MEDuETgYb_QxGLZX-165" edge="1">
          <mxGeometry relative="1" as="geometry" />
        </mxCell>
        <mxCell id="Ult3MEDuETgYb_QxGLZX-131" style="rounded=0;orthogonalLoop=1;jettySize=auto;html=1;endSize=10;strokeWidth=2;endArrow=classicThin;endFill=1;fillColor=#f8cecc;strokeColor=#050202;" parent="1" source="Ult3MEDuETgYb_QxGLZX-163" target="Ult3MEDuETgYb_QxGLZX-135" edge="1">
          <mxGeometry relative="1" as="geometry" />
        </mxCell>
        <mxCell id="Ult3MEDuETgYb_QxGLZX-132" value="1" style="ellipse;whiteSpace=wrap;html=1;aspect=fixed;fontSize=20;strokeWidth=3;" parent="1" vertex="1">
          <mxGeometry x="1160" y="480" width="40" height="40" as="geometry" />
        </mxCell>
        <mxCell id="Ult3MEDuETgYb_QxGLZX-133" style="rounded=0;orthogonalLoop=1;jettySize=auto;html=1;entryX=0;entryY=0.25;entryDx=0;entryDy=0;endSize=10;strokeWidth=2;endArrow=classicThin;endFill=1;entryPerimeter=0;dashed=1;dashPattern=1 2;fillColor=#fff2cc;strokeColor=#d6b656;" parent="1" source="Ult3MEDuETgYb_QxGLZX-134" target="Ult3MEDuETgYb_QxGLZX-165" edge="1">
          <mxGeometry relative="1" as="geometry" />
        </mxCell>
        <mxCell id="Ult3MEDuETgYb_QxGLZX-134" value="2" style="ellipse;whiteSpace=wrap;html=1;aspect=fixed;fontSize=20;strokeWidth=3;" parent="1" vertex="1">
          <mxGeometry x="1040" y="160" width="40" height="40" as="geometry" />
        </mxCell>
        <mxCell id="Ult3MEDuETgYb_QxGLZX-135" value="3" style="ellipse;whiteSpace=wrap;html=1;aspect=fixed;fontSize=20;strokeWidth=3;" parent="1" vertex="1">
          <mxGeometry x="1560" y="320" width="40" height="40" as="geometry" />
        </mxCell>
        <mxCell id="Ult3MEDuETgYb_QxGLZX-136" style="rounded=0;orthogonalLoop=1;jettySize=auto;html=1;endSize=10;strokeWidth=2;endArrow=classicThin;endFill=1;" parent="1" source="Ult3MEDuETgYb_QxGLZX-137" target="Ult3MEDuETgYb_QxGLZX-135" edge="1">
          <mxGeometry relative="1" as="geometry" />
        </mxCell>
        <mxCell id="Ult3MEDuETgYb_QxGLZX-137" value="4" style="ellipse;whiteSpace=wrap;html=1;aspect=fixed;fontSize=20;strokeWidth=3;" parent="1" vertex="1">
          <mxGeometry x="1400" y="160" width="40" height="40" as="geometry" />
        </mxCell>
        <mxCell id="Ult3MEDuETgYb_QxGLZX-138" style="rounded=0;orthogonalLoop=1;jettySize=auto;html=1;endSize=10;strokeWidth=2;endArrow=classicThin;endFill=1;fillColor=#d5e8d4;strokeColor=#82b366;dashed=1;dashPattern=1 1;" parent="1" source="Ult3MEDuETgYb_QxGLZX-141" target="Ult3MEDuETgYb_QxGLZX-135" edge="1">
          <mxGeometry relative="1" as="geometry" />
        </mxCell>
        <mxCell id="Ult3MEDuETgYb_QxGLZX-139" style="rounded=0;orthogonalLoop=1;jettySize=auto;html=1;entryX=0.036;entryY=0.369;entryDx=0;entryDy=0;endSize=10;strokeWidth=2;endArrow=classicThin;endFill=1;entryPerimeter=0;fillColor=#d5e8d4;strokeColor=#82b366;dashed=1;dashPattern=1 1;" parent="1" source="Ult3MEDuETgYb_QxGLZX-141" target="Ult3MEDuETgYb_QxGLZX-160" edge="1">
          <mxGeometry relative="1" as="geometry" />
        </mxCell>
        <mxCell id="Ult3MEDuETgYb_QxGLZX-140" style="rounded=0;orthogonalLoop=1;jettySize=auto;html=1;entryX=0;entryY=1;entryDx=0;entryDy=0;endSize=10;strokeWidth=2;endArrow=classicThin;endFill=1;fillColor=#d5e8d4;strokeColor=#82b366;dashed=1;dashPattern=1 1;" parent="1" source="Ult3MEDuETgYb_QxGLZX-141" target="Ult3MEDuETgYb_QxGLZX-156" edge="1">
          <mxGeometry relative="1" as="geometry" />
        </mxCell>
        <mxCell id="Ult3MEDuETgYb_QxGLZX-141" value="5" style="ellipse;whiteSpace=wrap;html=1;aspect=fixed;fontSize=20;strokeWidth=3;" parent="1" vertex="1">
          <mxGeometry x="920" y="400" width="40" height="40" as="geometry" />
        </mxCell>
        <mxCell id="Ult3MEDuETgYb_QxGLZX-142" style="rounded=0;orthogonalLoop=1;jettySize=auto;html=1;endSize=10;strokeWidth=2;endArrow=classicThin;endFill=1;fillColor=#dae8fc;strokeColor=#6c8ebf;dashed=1;dashPattern=1 1;" parent="1" source="Ult3MEDuETgYb_QxGLZX-146" target="Ult3MEDuETgYb_QxGLZX-137" edge="1">
          <mxGeometry relative="1" as="geometry" />
        </mxCell>
        <mxCell id="Ult3MEDuETgYb_QxGLZX-143" style="rounded=0;orthogonalLoop=1;jettySize=auto;html=1;endSize=10;strokeWidth=2;endArrow=classicThin;endFill=1;fillColor=#dae8fc;strokeColor=#6c8ebf;dashed=1;dashPattern=1 1;" parent="1" source="Ult3MEDuETgYb_QxGLZX-146" target="Ult3MEDuETgYb_QxGLZX-163" edge="1">
          <mxGeometry relative="1" as="geometry" />
        </mxCell>
        <mxCell id="Ult3MEDuETgYb_QxGLZX-144" style="rounded=0;orthogonalLoop=1;jettySize=auto;html=1;endSize=10;strokeWidth=2;endArrow=classicThin;endFill=1;fillColor=#dae8fc;strokeColor=#6c8ebf;dashed=1;dashPattern=1 1;" parent="1" source="Ult3MEDuETgYb_QxGLZX-146" target="Ult3MEDuETgYb_QxGLZX-162" edge="1">
          <mxGeometry relative="1" as="geometry" />
        </mxCell>
        <mxCell id="Ult3MEDuETgYb_QxGLZX-145" style="rounded=0;orthogonalLoop=1;jettySize=auto;html=1;strokeWidth=2;endSize=10;endArrow=classicThin;endFill=1;fillColor=#dae8fc;strokeColor=#6c8ebf;dashed=1;dashPattern=1 1;" parent="1" source="Ult3MEDuETgYb_QxGLZX-146" target="Ult3MEDuETgYb_QxGLZX-165" edge="1">
          <mxGeometry relative="1" as="geometry" />
        </mxCell>
        <mxCell id="Ult3MEDuETgYb_QxGLZX-146" value="6" style="ellipse;whiteSpace=wrap;html=1;aspect=fixed;fontSize=20;strokeWidth=3;" parent="1" vertex="1">
          <mxGeometry x="1281" y="270" width="40" height="40" as="geometry" />
        </mxCell>
        <mxCell id="Ult3MEDuETgYb_QxGLZX-147" style="rounded=0;orthogonalLoop=1;jettySize=auto;html=1;endSize=10;strokeWidth=2;endArrow=classicThin;endFill=1;dashed=1;dashPattern=1 2;fillColor=#f8cecc;strokeColor=#b85450;" parent="1" source="Ult3MEDuETgYb_QxGLZX-148" target="Ult3MEDuETgYb_QxGLZX-162" edge="1">
          <mxGeometry relative="1" as="geometry" />
        </mxCell>
        <mxCell id="Ult3MEDuETgYb_QxGLZX-148" value="7" style="ellipse;whiteSpace=wrap;html=1;aspect=fixed;fontSize=20;strokeWidth=3;" parent="1" vertex="1">
          <mxGeometry x="1160" y="320" width="40" height="40" as="geometry" />
        </mxCell>
        <mxCell id="Ult3MEDuETgYb_QxGLZX-149" style="rounded=0;orthogonalLoop=1;jettySize=auto;html=1;endSize=10;strokeWidth=2;endArrow=classicThin;endFill=1;fillColor=#d5e8d4;strokeColor=#82b366;dashed=1;dashPattern=1 1;" parent="1" source="Ult3MEDuETgYb_QxGLZX-153" target="Ult3MEDuETgYb_QxGLZX-146" edge="1">
          <mxGeometry relative="1" as="geometry" />
        </mxCell>
        <mxCell id="Ult3MEDuETgYb_QxGLZX-150" style="rounded=0;orthogonalLoop=1;jettySize=auto;html=1;endSize=10;strokeWidth=2;endArrow=classicThin;endFill=1;fillColor=#d5e8d4;strokeColor=#82b366;dashed=1;dashPattern=1 1;" parent="1" source="Ult3MEDuETgYb_QxGLZX-153" target="Ult3MEDuETgYb_QxGLZX-137" edge="1">
          <mxGeometry relative="1" as="geometry" />
        </mxCell>
        <mxCell id="Ult3MEDuETgYb_QxGLZX-151" style="rounded=0;orthogonalLoop=1;jettySize=auto;html=1;entryX=0.217;entryY=0.033;entryDx=0;entryDy=0;endSize=10;strokeWidth=2;endArrow=classicThin;endFill=1;entryPerimeter=0;fillColor=#d5e8d4;strokeColor=#82b366;dashed=1;dashPattern=1 1;" parent="1" source="Ult3MEDuETgYb_QxGLZX-153" target="Ult3MEDuETgYb_QxGLZX-148" edge="1">
          <mxGeometry relative="1" as="geometry" />
        </mxCell>
        <mxCell id="Ult3MEDuETgYb_QxGLZX-152" style="rounded=0;orthogonalLoop=1;jettySize=auto;html=1;endSize=10;strokeWidth=2;endArrow=classicThin;endFill=1;fillColor=#d5e8d4;strokeColor=#82b366;dashed=1;dashPattern=1 1;" parent="1" source="Ult3MEDuETgYb_QxGLZX-153" target="Ult3MEDuETgYb_QxGLZX-134" edge="1">
          <mxGeometry relative="1" as="geometry" />
        </mxCell>
        <mxCell id="Ult3MEDuETgYb_QxGLZX-153" value="8" style="ellipse;whiteSpace=wrap;html=1;aspect=fixed;fontSize=20;strokeWidth=3;" parent="1" vertex="1">
          <mxGeometry x="920" y="200" width="40" height="40" as="geometry" />
        </mxCell>
        <mxCell id="Ult3MEDuETgYb_QxGLZX-154" style="rounded=0;orthogonalLoop=1;jettySize=auto;html=1;entryX=-0.03;entryY=0.67;entryDx=0;entryDy=0;endSize=10;strokeWidth=2;endArrow=classicThin;endFill=1;entryPerimeter=0;dashed=1;dashPattern=1 2;fillColor=#fff2cc;strokeColor=#d6b656;" parent="1" source="Ult3MEDuETgYb_QxGLZX-156" target="Ult3MEDuETgYb_QxGLZX-167" edge="1">
          <mxGeometry relative="1" as="geometry" />
        </mxCell>
        <mxCell id="Ult3MEDuETgYb_QxGLZX-155" style="rounded=0;orthogonalLoop=1;jettySize=auto;html=1;entryX=0.018;entryY=0.196;entryDx=0;entryDy=0;endSize=10;strokeWidth=2;endArrow=classicThin;endFill=1;entryPerimeter=0;dashed=1;dashPattern=1 2;fillColor=#fff2cc;strokeColor=#d6b656;" parent="1" source="Ult3MEDuETgYb_QxGLZX-156" target="Ult3MEDuETgYb_QxGLZX-132" edge="1">
          <mxGeometry relative="1" as="geometry" />
        </mxCell>
        <mxCell id="Ult3MEDuETgYb_QxGLZX-156" value="9" style="ellipse;whiteSpace=wrap;html=1;aspect=fixed;fontSize=20;strokeWidth=3;" parent="1" vertex="1">
          <mxGeometry x="1040" y="320" width="40" height="40" as="geometry" />
        </mxCell>
        <mxCell id="Ult3MEDuETgYb_QxGLZX-157" style="rounded=0;orthogonalLoop=1;jettySize=auto;html=1;entryX=0;entryY=1;entryDx=0;entryDy=0;endSize=10;strokeWidth=2;endArrow=classicThin;endFill=1;dashed=1;dashPattern=1 2;fillColor=#fff2cc;strokeColor=#d6b656;" parent="1" source="Ult3MEDuETgYb_QxGLZX-160" target="Ult3MEDuETgYb_QxGLZX-148" edge="1">
          <mxGeometry relative="1" as="geometry" />
        </mxCell>
        <mxCell id="Ult3MEDuETgYb_QxGLZX-158" style="rounded=0;orthogonalLoop=1;jettySize=auto;html=1;entryX=-0.04;entryY=0.64;entryDx=0;entryDy=0;endSize=10;strokeWidth=2;entryPerimeter=0;endArrow=classicThin;endFill=1;dashed=1;dashPattern=1 2;fillColor=#fff2cc;strokeColor=#d6b656;" parent="1" source="Ult3MEDuETgYb_QxGLZX-160" target="Ult3MEDuETgYb_QxGLZX-132" edge="1">
          <mxGeometry relative="1" as="geometry" />
        </mxCell>
        <mxCell id="Ult3MEDuETgYb_QxGLZX-159" style="rounded=0;orthogonalLoop=1;jettySize=auto;html=1;endSize=10;strokeWidth=2;endArrow=classicThin;endFill=1;dashed=1;dashPattern=12 12;fillColor=#fff2cc;strokeColor=#d6b656;" parent="1" source="Ult3MEDuETgYb_QxGLZX-160" target="Ult3MEDuETgYb_QxGLZX-163" edge="1">
          <mxGeometry relative="1" as="geometry" />
        </mxCell>
        <mxCell id="Ult3MEDuETgYb_QxGLZX-160" value="10" style="ellipse;whiteSpace=wrap;html=1;aspect=fixed;fontSize=20;strokeWidth=3;" parent="1" vertex="1">
          <mxGeometry x="1040" y="440" width="40" height="40" as="geometry" />
        </mxCell>
        <mxCell id="Ult3MEDuETgYb_QxGLZX-161" style="rounded=0;orthogonalLoop=1;jettySize=auto;html=1;endSize=10;strokeWidth=2;endArrow=classicThin;endFill=1;" parent="1" source="Ult3MEDuETgYb_QxGLZX-162" target="Ult3MEDuETgYb_QxGLZX-135" edge="1">
          <mxGeometry relative="1" as="geometry" />
        </mxCell>
        <mxCell id="Ult3MEDuETgYb_QxGLZX-162" value="11" style="ellipse;whiteSpace=wrap;html=1;aspect=fixed;fontSize=20;strokeWidth=3;" parent="1" vertex="1">
          <mxGeometry x="1400" y="280" width="40" height="40" as="geometry" />
        </mxCell>
        <mxCell id="Ult3MEDuETgYb_QxGLZX-164" style="rounded=0;orthogonalLoop=1;jettySize=auto;html=1;endSize=10;strokeWidth=2;endArrow=classicThin;endFill=1;" parent="1" source="Ult3MEDuETgYb_QxGLZX-165" target="Ult3MEDuETgYb_QxGLZX-135" edge="1">
          <mxGeometry relative="1" as="geometry" />
        </mxCell>
        <mxCell id="Ult3MEDuETgYb_QxGLZX-165" value="13" style="ellipse;whiteSpace=wrap;html=1;aspect=fixed;fontSize=20;strokeWidth=3;" parent="1" vertex="1">
          <mxGeometry x="1400" y="480" width="40" height="40" as="geometry" />
        </mxCell>
        <mxCell id="Ult3MEDuETgYb_QxGLZX-166" style="rounded=0;orthogonalLoop=1;jettySize=auto;html=1;endSize=10;strokeWidth=2;endArrow=classicThin;endFill=1;dashed=1;dashPattern=1 2;fillColor=#f8cecc;strokeColor=#b85450;" parent="1" source="Ult3MEDuETgYb_QxGLZX-167" target="Ult3MEDuETgYb_QxGLZX-146" edge="1">
          <mxGeometry relative="1" as="geometry" />
        </mxCell>
        <mxCell id="Ult3MEDuETgYb_QxGLZX-167" value="14" style="ellipse;whiteSpace=wrap;html=1;aspect=fixed;fontSize=20;strokeWidth=3;" parent="1" vertex="1">
          <mxGeometry x="1160" y="120" width="40" height="40" as="geometry" />
        </mxCell>
        <mxCell id="Ult3MEDuETgYb_QxGLZX-168" value="" style="endArrow=none;dashed=1;html=1;rounded=0;strokeWidth=2;" parent="1" edge="1">
          <mxGeometry width="50" height="50" relative="1" as="geometry">
            <mxPoint x="1000" y="600" as="sourcePoint" />
            <mxPoint x="1000" y="40" as="targetPoint" />
          </mxGeometry>
        </mxCell>
        <mxCell id="Ult3MEDuETgYb_QxGLZX-169" value="" style="endArrow=none;dashed=1;html=1;rounded=0;strokeWidth=2;" parent="1" edge="1">
          <mxGeometry width="50" height="50" relative="1" as="geometry">
            <mxPoint x="1119.5" y="600" as="sourcePoint" />
            <mxPoint x="1119.5" y="40" as="targetPoint" />
          </mxGeometry>
        </mxCell>
        <mxCell id="Ult3MEDuETgYb_QxGLZX-170" value="" style="endArrow=none;dashed=1;html=1;rounded=0;strokeWidth=2;" parent="1" edge="1">
          <mxGeometry width="50" height="50" relative="1" as="geometry">
            <mxPoint x="1240" y="600" as="sourcePoint" />
            <mxPoint x="1240" y="40" as="targetPoint" />
          </mxGeometry>
        </mxCell>
        <mxCell id="Ult3MEDuETgYb_QxGLZX-171" value="" style="endArrow=none;dashed=1;html=1;rounded=0;strokeWidth=2;" parent="1" edge="1">
          <mxGeometry width="50" height="50" relative="1" as="geometry">
            <mxPoint x="1360" y="600" as="sourcePoint" />
            <mxPoint x="1360" y="40" as="targetPoint" />
          </mxGeometry>
        </mxCell>
        <mxCell id="Ult3MEDuETgYb_QxGLZX-172" value="" style="rounded=0;orthogonalLoop=1;jettySize=auto;html=1;endSize=10;strokeWidth=2;endArrow=classicThin;endFill=1;dashed=1;dashPattern=1 2;fillColor=#f8cecc;strokeColor=#b85450;" parent="1" source="Ult3MEDuETgYb_QxGLZX-132" target="Ult3MEDuETgYb_QxGLZX-163" edge="1">
          <mxGeometry relative="1" as="geometry">
            <mxPoint x="1199" y="453" as="sourcePoint" />
            <mxPoint x="1606" y="310" as="targetPoint" />
          </mxGeometry>
        </mxCell>
        <mxCell id="Ult3MEDuETgYb_QxGLZX-163" value="12" style="ellipse;whiteSpace=wrap;html=1;aspect=fixed;fontSize=20;strokeWidth=3;" parent="1" vertex="1">
          <mxGeometry x="1400" y="380" width="40" height="40" as="geometry" />
        </mxCell>
        <mxCell id="Ult3MEDuETgYb_QxGLZX-173" value="" style="endArrow=none;dashed=1;html=1;rounded=0;strokeWidth=2;" parent="1" edge="1">
          <mxGeometry width="50" height="50" relative="1" as="geometry">
            <mxPoint x="1480" y="600" as="sourcePoint" />
            <mxPoint x="1480" y="40" as="targetPoint" />
          </mxGeometry>
        </mxCell>
        <mxCell id="vOLtnv2q4jdiuzCQ8DGL-1" value="N&lt;span style=&quot;font-size: 16.6667px;&quot;&gt;&lt;sub&gt;0&lt;/sub&gt;&lt;/span&gt;" style="text;html=1;align=left;verticalAlign=middle;whiteSpace=wrap;rounded=0;fontFamily=Courier New;fontSize=20;fontStyle=1" vertex="1" parent="1">
          <mxGeometry x="920" y="585" width="30" height="20" as="geometry" />
        </mxCell>
        <mxCell id="vOLtnv2q4jdiuzCQ8DGL-2" value="N&lt;span style=&quot;font-size: 16.6667px;&quot;&gt;&lt;sub&gt;1&lt;/sub&gt;&lt;/span&gt;" style="text;html=1;align=left;verticalAlign=middle;whiteSpace=wrap;rounded=0;fontFamily=Courier New;fontSize=20;fontStyle=1" vertex="1" parent="1">
          <mxGeometry x="1040" y="585" width="30" height="20" as="geometry" />
        </mxCell>
        <mxCell id="vOLtnv2q4jdiuzCQ8DGL-3" value="N&lt;span style=&quot;font-size: 16.6667px;&quot;&gt;&lt;sub&gt;2&lt;/sub&gt;&lt;/span&gt;" style="text;html=1;align=left;verticalAlign=middle;whiteSpace=wrap;rounded=0;fontFamily=Courier New;fontSize=20;fontStyle=1" vertex="1" parent="1">
          <mxGeometry x="1160" y="585" width="30" height="20" as="geometry" />
        </mxCell>
        <mxCell id="vOLtnv2q4jdiuzCQ8DGL-4" value="N&lt;span style=&quot;font-size: 16.6667px;&quot;&gt;&lt;sub&gt;3&lt;/sub&gt;&lt;/span&gt;" style="text;html=1;align=left;verticalAlign=middle;whiteSpace=wrap;rounded=0;fontFamily=Courier New;fontSize=20;fontStyle=1" vertex="1" parent="1">
          <mxGeometry x="1281" y="584" width="30" height="20" as="geometry" />
        </mxCell>
        <mxCell id="vOLtnv2q4jdiuzCQ8DGL-5" value="N&lt;span style=&quot;font-size: 16.6667px;&quot;&gt;&lt;sub&gt;4&lt;/sub&gt;&lt;/span&gt;" style="text;html=1;align=left;verticalAlign=middle;whiteSpace=wrap;rounded=0;fontFamily=Courier New;fontSize=20;fontStyle=1" vertex="1" parent="1">
          <mxGeometry x="1400" y="585" width="30" height="20" as="geometry" />
        </mxCell>
        <mxCell id="vOLtnv2q4jdiuzCQ8DGL-6" value="N&lt;span style=&quot;font-size: 16.6667px;&quot;&gt;&lt;sub&gt;5&lt;/sub&gt;&lt;/span&gt;" style="text;html=1;align=left;verticalAlign=middle;whiteSpace=wrap;rounded=0;fontFamily=Courier New;fontSize=20;fontStyle=1" vertex="1" parent="1">
          <mxGeometry x="1510" y="584" width="30" height="20" as="geometry" />
        </mxCell>
      </root>
    </mxGraphModel>
  </diagram>
</mxfile>
